<?xml version="1.0" encoding="utf-8"?>
<!-- Generator: Adobe Illustrator 17.0.0, SVG Export Plug-In . SVG Version: 6.00 Build 0)  -->
<!DOCTYPE svg PUBLIC "-//W3C//DTD SVG 1.1//EN" "http://www.w3.org/Graphics/SVG/1.1/DTD/svg11.dtd">
<svg version="1.1" id="Layer_1" xmlns="http://www.w3.org/2000/svg" xmlns:xlink="http://www.w3.org/1999/xlink" x="0px" y="0px"
	 width="100px" height="100px" viewBox="0 0 100 100" enable-background="new 0 0 100 100" xml:space="preserve">
<path fill="#E6E7E8" d="M96.935,24.266C91.76,9.258,77.138,9.809,64.067,12.063c-0.401,0.213-0.846,0.339-1.316,0.352
	C42.349,19.636,14.319,28.061,3.743,47.972c-9.139,17.206,3.912,34.062,19.932,40.565C59.921,103.248,110.82,64.539,96.935,24.266z"
	/>
<path opacity="0.6" fill="#D3D3D3" d="M92.369,85.038c12.062-10.321,6.184-23.721-0.71-35.052c-0.345-0.294-0.626-0.663-0.81-1.095
	C76.644,32.561,58.521,9.578,36.118,7.047C16.759,4.859,5.868,23.186,5.698,40.475C5.315,79.59,60.001,112.733,92.369,85.038z"/>
<g>
	<path d="M69.16,62.109c0-2.201-1.791-3.992-3.992-3.992c-2.201,0-3.991,1.792-3.991,3.992c0,2.104,1.638,3.811,3.702,3.962v5.041
		c0,6.975-4.309,12.645-9.604,12.645s-9.604-5.671-9.604-12.645v-5.519c1.165-0.263,2.04-1.304,2.04-2.55v-3.463
		c0-0.093-0.004-0.186-0.015-0.279c5.41-1.547,8.153-21.93,8.464-24.403c0-4.594-3.417-8.396-7.843-9.019
		c-0.026-0.632-0.542-1.139-1.181-1.139c-0.655,0-1.187,0.532-1.187,1.185v0.855c0,0.657,0.533,1.188,1.187,1.188
		c0.568,0,1.041-0.4,1.157-0.931c3.801,0.602,6.717,3.885,6.722,7.787c-1.151,9.055-4.332,23.422-8.03,23.422h-0.85l0.317,0.788
		c0.073,0.178,0.108,0.362,0.108,0.545v3.463c0,0.811-0.657,1.468-1.467,1.468c-0.808,0-1.467-0.657-1.467-1.468v-3.463
		c0-0.183,0.037-0.367,0.111-0.545l0.316-0.788h-1.57c-3.096,0-6.526-14.329-7.969-23.396c0.02-3.773,2.681-6.928,6.223-7.724
		c0.15,0.484,0.596,0.841,1.129,0.841c0.656,0,1.187-0.532,1.187-1.188v-0.855c0-0.655-0.532-1.185-1.187-1.185
		s-1.187,0.532-1.187,1.185v0.033c-4.167,0.841-7.315,4.529-7.315,8.94l0.007,0.09c0.646,4.074,4.126,24.405,9.111,24.405h0.003
		c-0.005,0.063-0.009,0.123-0.009,0.186v3.463c0,1.246,0.875,2.287,2.043,2.55v5.519c0,7.606,4.823,13.794,10.754,13.794
		c5.93,0,10.754-6.188,10.754-13.794v-5.109C67.816,65.608,69.16,64.015,69.16,62.109z M65.168,64.951
		c-1.566,0-2.842-1.273-2.842-2.842c0-1.566,1.276-2.842,2.842-2.842c1.568,0,2.844,1.276,2.844,2.842
		C68.012,63.677,66.736,64.951,65.168,64.951z"/>
</g>
<g display="none">
	<g display="inline">
		<g>
			<path fill="#010101" d="M53.97,76.727h-2.931c-1.109,0-2.011-0.901-2.011-2.011v-3.569c-1.091-0.305-2.136-0.753-3.111-1.336
				l-2.302,2.283c-0.379,0.374-0.883,0.582-1.414,0.582c-0.541,0-1.049-0.213-1.428-0.592l-2.066-2.08
				c-0.781-0.786-0.777-2.062,0.009-2.843l2.404-2.385c-0.43-0.814-0.777-1.669-1.022-2.552h-3.564
				c-1.109-0.005-2.011-0.906-2.011-2.015V57.28c0-1.109,0.901-2.011,2.011-2.011h3.569c0.305-1.091,0.753-2.131,1.336-3.111
				l-2.649-2.672c-0.781-0.786-0.777-2.062,0.014-2.843l2.08-2.066c0.379-0.374,0.878-0.582,1.414-0.582
				c0.541,0,1.049,0.213,1.428,0.592l2.75,2.773c0.814-0.435,1.673-0.777,2.556-1.022v-3.564c0-1.109,0.901-2.011,2.011-2.011h2.931
				c1.109,0,2.011,0.901,2.011,2.011v3.569c0.915,0.254,1.803,0.615,2.644,1.072l2.773-2.75c0.379-0.374,0.878-0.582,1.414-0.582
				c0.541,0,1.049,0.213,1.428,0.592l2.066,2.08c0.379,0.379,0.582,0.888,0.582,1.424c0,0.536-0.213,1.04-0.592,1.419l-2.667,2.649
				c0.559,0.952,0.989,1.969,1.285,3.028h3.569c1.109,0,2.011,0.901,2.011,2.011v2.926c0,1.109-0.901,2.011-2.011,2.011h-3.569
				c-0.254,0.915-0.615,1.803-1.072,2.644l2.385,2.404c0.379,0.379,0.582,0.888,0.582,1.424c0,0.536-0.213,1.04-0.592,1.419
				l-2.08,2.066c-0.379,0.374-0.878,0.582-1.414,0.582c-0.541,0-1.049-0.213-1.428-0.592l-2.279-2.297
				c-0.952,0.559-1.965,0.989-3.023,1.285v3.569C55.981,75.826,55.079,76.727,53.97,76.727z M45.784,68.652l0.31,0.194
				c1.086,0.689,2.265,1.197,3.504,1.507l0.347,0.088v4.276c0,0.606,0.49,1.096,1.096,1.096h2.931c0.606,0,1.096-0.49,1.096-1.096
				V70.44l0.347-0.088c1.206-0.3,2.357-0.79,3.421-1.456l0.31-0.194l2.792,2.815c0.208,0.208,0.481,0.324,0.777,0.324
				c0.291,0,0.564-0.111,0.772-0.314l2.08-2.066c0.208-0.203,0.319-0.481,0.324-0.772c0-0.296-0.111-0.569-0.314-0.777l-2.875-2.894
				l0.176-0.3c0.555-0.966,0.975-1.992,1.239-3.06l0.088-0.347h4.276c0.606,0,1.096-0.49,1.096-1.096v-2.931
				c0-0.606-0.49-1.096-1.096-1.096H64.2l-0.088-0.347c-0.3-1.206-0.79-2.362-1.456-3.425l-0.194-0.31l3.18-3.157
				c0.208-0.203,0.319-0.481,0.324-0.772c0-0.296-0.111-0.569-0.314-0.777l-2.066-2.08c-0.208-0.208-0.481-0.324-0.777-0.324
				c-0.291,0-0.564,0.111-0.772,0.314l-3.264,3.24l-0.3-0.176c-0.961-0.555-1.992-0.971-3.06-1.239l-0.347-0.088v-4.276
				c0-0.606-0.49-1.096-1.096-1.096h-2.931c-0.606,0-1.096,0.49-1.096,1.096v4.276l-0.347,0.088
				c-1.04,0.259-2.039,0.661-2.981,1.193l-0.305,0.171l-3.236-3.268c-0.208-0.208-0.481-0.324-0.777-0.324
				c-0.291,0-0.564,0.111-0.772,0.314l-2.08,2.066c-0.43,0.425-0.43,1.119-0.005,1.549l3.162,3.185l-0.194,0.31
				c-0.689,1.086-1.197,2.265-1.507,3.499l-0.088,0.347h-4.28c-0.606,0-1.096,0.49-1.096,1.096v2.935
				c0,0.606,0.49,1.096,1.096,1.096h4.276l0.088,0.347c0.259,1.04,0.661,2.039,1.193,2.977l0.171,0.305l-2.898,2.875
				c-0.43,0.425-0.43,1.119-0.005,1.549l2.066,2.08c0.208,0.208,0.481,0.324,0.777,0.324c0.291,0,0.564-0.111,0.772-0.314
				L45.784,68.652z"/>
		</g>
		<g>
			<path fill="#010101" d="M52.505,65.601c-3.781,0-6.86-3.079-6.86-6.86c0-3.781,3.079-6.855,6.86-6.855
				c3.781,0,6.86,3.079,6.86,6.86C59.364,62.527,56.286,65.601,52.505,65.601z M52.505,52.801c-3.277,0-5.945,2.667-5.945,5.945
				s2.667,5.94,5.945,5.94c3.277,0,5.945-2.667,5.945-5.945C58.449,55.464,55.782,52.801,52.505,52.801z"/>
		</g>
	</g>
</g>
<g display="none">
	<g display="inline">
		<g>
			<path fill="#010101" d="M40.714,43.96l-1.237-0.482c-0.468-0.183-0.701-0.711-0.518-1.18l0.587-1.507
				c-0.41-0.308-0.778-0.669-1.094-1.076l-1.348,0.585c-0.222,0.096-0.469,0.101-0.693,0.013c-0.228-0.089-0.408-0.262-0.506-0.485
				l-0.53-1.218c-0.201-0.46,0.011-0.998,0.472-1.199l1.407-0.612c-0.048-0.414-0.053-0.832-0.012-1.245l-1.505-0.586
				c-0.468-0.184-0.7-0.713-0.517-1.182l0.482-1.237c0.183-0.468,0.711-0.701,1.18-0.518l1.507,0.587
				c0.308-0.41,0.669-0.776,1.076-1.094l-0.679-1.564c-0.201-0.46,0.011-0.998,0.474-1.198l1.218-0.53
				c0.222-0.096,0.467-0.101,0.693-0.013c0.228,0.089,0.408,0.262,0.506,0.485l0.705,1.624c0.415-0.05,0.834-0.053,1.247-0.011
				l0.586-1.505c0.183-0.468,0.711-0.701,1.18-0.518l1.237,0.482c0.468,0.183,0.701,0.711,0.518,1.18l-0.587,1.507
				c0.345,0.258,0.66,0.556,0.94,0.888l1.624-0.705c0.222-0.096,0.467-0.101,0.693-0.013c0.228,0.089,0.408,0.262,0.506,0.485
				l0.53,1.218c0.098,0.222,0.1,0.471,0.012,0.697c-0.088,0.226-0.261,0.404-0.483,0.502l-1.562,0.68
				c0.08,0.494,0.094,0.994,0.044,1.49l1.507,0.587c0.468,0.183,0.701,0.711,0.518,1.18l-0.481,1.235
				c-0.183,0.468-0.711,0.701-1.18,0.518l-1.507-0.587c-0.258,0.345-0.556,0.66-0.888,0.94l0.612,1.407
				c0.098,0.222,0.1,0.471,0.012,0.697c-0.088,0.226-0.261,0.404-0.483,0.502l-1.218,0.53c-0.222,0.096-0.467,0.101-0.693,0.013
				c-0.228-0.089-0.408-0.262-0.506-0.485l-0.584-1.345c-0.494,0.079-0.992,0.094-1.488,0.045L41.9,43.449
				C41.711,43.911,41.182,44.143,40.714,43.96z M38.586,39.204l0.099,0.133c0.345,0.47,0.759,0.878,1.231,1.213l0.132,0.094
				l-0.703,1.805c-0.1,0.256,0.027,0.543,0.282,0.643l1.237,0.482c0.256,0.1,0.543-0.027,0.643-0.282l0.703-1.805l0.161,0.02
				c0.559,0.072,1.125,0.054,1.684-0.052l0.163-0.031l0.716,1.648c0.054,0.122,0.15,0.216,0.275,0.264
				c0.123,0.048,0.256,0.046,0.378-0.006l1.218-0.53c0.121-0.052,0.214-0.15,0.264-0.273c0.049-0.125,0.047-0.258-0.005-0.38
				l-0.738-1.695l0.124-0.098c0.393-0.317,0.74-0.681,1.027-1.088l0.094-0.132l1.805,0.703c0.256,0.1,0.543-0.027,0.643-0.282
				l0.482-1.237c0.1-0.256-0.027-0.543-0.282-0.643l-1.805-0.703l0.02-0.161c0.072-0.559,0.055-1.127-0.051-1.686l-0.031-0.163
				l1.862-0.81c0.121-0.052,0.214-0.151,0.264-0.273c0.049-0.125,0.047-0.258-0.005-0.38l-0.53-1.218
				c-0.054-0.122-0.15-0.216-0.275-0.264c-0.123-0.048-0.256-0.046-0.378,0.006l-1.911,0.831l-0.098-0.124
				c-0.315-0.392-0.681-0.738-1.088-1.027l-0.132-0.094l0.703-1.805c0.1-0.256-0.027-0.543-0.282-0.643l-1.237-0.482
				c-0.256-0.1-0.543,0.027-0.643,0.282l-0.703,1.805l-0.161-0.02c-0.482-0.062-0.969-0.056-1.455,0.013l-0.157,0.022l-0.829-1.912
				c-0.054-0.122-0.15-0.216-0.275-0.264c-0.123-0.048-0.256-0.046-0.378,0.006l-1.218,0.53c-0.251,0.109-0.366,0.402-0.257,0.653
				l0.811,1.865l-0.133,0.099c-0.47,0.345-0.878,0.759-1.212,1.23l-0.094,0.132l-1.807-0.704c-0.256-0.1-0.543,0.027-0.643,0.282
				l-0.483,1.239c-0.1,0.256,0.027,0.543,0.282,0.643l1.805,0.703l-0.02,0.161c-0.062,0.482-0.056,0.969,0.014,1.453l0.022,0.157
				l-1.697,0.737c-0.251,0.109-0.366,0.402-0.257,0.653l0.53,1.218c0.054,0.122,0.15,0.216,0.275,0.264
				c0.123,0.048,0.256,0.046,0.378-0.006L38.586,39.204z"/>
		</g>
		<g>
			<path fill="#010101" d="M41.925,39.021c-1.596-0.622-2.39-2.428-1.768-4.025c0.622-1.596,2.428-2.388,4.024-1.766
				c1.596,0.622,2.39,2.428,1.768,4.025C45.328,38.852,43.522,39.644,41.925,39.021z M44.031,33.617
				c-1.384-0.539-2.949,0.148-3.488,1.532c-0.539,1.384,0.149,2.947,1.533,3.486c1.384,0.539,2.949-0.148,3.488-1.532
				C46.103,35.719,45.415,34.156,44.031,33.617z"/>
		</g>
	</g>
</g>
<g display="none">
	<path display="inline" fill="#010101" d="M40.464,72.617c-4.931,0-6.248-10.846-6.248-17.254c0-1.303-0.619-3.006-1.277-4.809
		c-1.428-3.925-3.209-8.808-0.109-13.327c1.97-2.87,4.101-4.208,6.709-4.208c1.687,0,3.315,0.544,5.041,1.122
		c1.711,0.572,3.482,1.162,5.294,1.162c1.842,0,3.602-0.579,5.305-1.14c1.699-0.559,3.303-1.088,4.983-1.088
		c2.605,0,4.794,1.312,6.889,4.132c3.249,4.37,1.472,9.377,0.042,13.405c-0.638,1.795-1.239,3.492-1.239,4.75
		c0,2.869-0.302,17.179-6.25,17.179c-4.109,0-5.074-4.252-5.922-8.001c-0.864-3.812-1.543-6.127-3.675-6.127
		c-2.452,0-3.317,3.258-4.234,6.709C44.796,68.805,43.783,72.617,40.464,72.617z M39.537,34.41c-2.135,0-3.852,1.112-5.562,3.604
		c-2.695,3.927-1.121,8.25,0.269,12.062c0.7,1.922,1.362,3.737,1.362,5.286c0,7.796,1.816,15.862,4.856,15.862
		c2.25,0,3.082-3.138,3.965-6.462c0.964-3.628,2.057-7.742,5.577-7.742c3.397,0,4.227,3.666,5.032,7.211
		c0.947,4.179,1.774,6.917,4.566,6.917c3.338,0,4.858-8.184,4.858-15.787c0-1.498,0.641-3.305,1.321-5.216
		c1.387-3.908,2.957-8.337,0.151-12.112c-1.835-2.469-3.614-3.571-5.772-3.571c-1.456,0-2.959,0.493-4.549,1.018
		c-1.807,0.596-3.673,1.211-5.739,1.211c-2.038,0-3.916-0.627-5.736-1.235C42.523,34.919,40.998,34.41,39.537,34.41z"/>
</g>
</svg>
