<?xml version="1.0" encoding="utf-8"?>
<!-- Generator: Adobe Illustrator 17.0.0, SVG Export Plug-In . SVG Version: 6.00 Build 0)  -->
<!DOCTYPE svg PUBLIC "-//W3C//DTD SVG 1.1//EN" "http://www.w3.org/Graphics/SVG/1.1/DTD/svg11.dtd">
<svg version="1.1" id="Layer_1" xmlns="http://www.w3.org/2000/svg" xmlns:xlink="http://www.w3.org/1999/xlink" x="0px" y="0px"
	 width="360px" height="100px" viewBox="0 0 360 100" enable-background="new 0 0 360 100" xml:space="preserve">
<g id="svgg">
	<path id="path0" fill="none" d="M-19.95-53.414"/>
	<path id="path1" fill="none" d="M-19.95-53.414"/>
	<path id="path2" fill="none" d="M-19.95-53.414"/>
	<path id="path3" fill="none" d="M-19.95-53.414"/>
	<path id="path4" fill="none" d="M-19.95-53.414"/>
	<path id="path5" fill="none" d="M-19.95-53.414"/>
	<path id="path6" fill="#F4F4F4" d="M137.956,54.336c0,2.475,0.023,3.511,0.052,2.302c0.028-1.209,0.028-3.234,0-4.5
		S137.956,51.861,137.956,54.336 M107.353,53.044c1.77,0.027,4.62,0.027,6.333,0s0.264-0.049-3.219-0.049
		C106.983,52.995,105.582,53.017,107.353,53.044 M264.175,53.044c1.765,0.027,4.652,0.027,6.417,0
		c1.764-0.027,0.32-0.049-3.209-0.049C263.854,52.995,262.41,53.017,264.175,53.044"/>
	<path id="path19" fill="#FFFFFF" d="M307.795,31.368c-0.809,0.28-1.033,0.476-1.424,1.242c-0.519,1.017-0.498,26.338,0.022,27.413
		c0.892,1.842,3.833,1.869,4.907,0.046c0.452-0.767,0.53-26.518,0.083-27.385C310.745,31.447,309.203,30.881,307.795,31.368
		 M148.967,33.988c-1.578,0.701-1.584,0.743-1.582,11.18c0.001,11.034,0.064,11.513,1.824,13.844
		c2.974,3.939,11.098,3.437,13.298-0.822c1.821-3.526-1.737-5.907-4.523-3.026c-1.134,1.173-1.84,1.428-3.048,1.103
		c-1.648-0.444-1.884-1.253-1.885-6.473l-0.001-4.041h3.507c4.657,0,5.491-0.402,5.492-2.647c0.002-2.229-0.725-2.588-5.374-2.657
		l-3.625-0.053l-0.004-2.28C153.04,34.356,151.545,32.842,148.967,33.988 M107.3,40.081c-5.674,0.782-9.164,4.878-9.164,10.755
		c0,6.568,4.398,10.792,11.247,10.8c5.751,0.008,10.558-3.74,8.685-6.771c-0.975-1.578-3.025-1.517-4.767,0.141
		c-2.225,2.12-6.215,1.957-8.228-0.335c-0.51-0.582-0.856-1.229-0.856-1.601c0-0.1,2.49-0.154,6.655-0.145
		c7.137,0.016,7.063,0.024,7.988-0.848c0.585-0.553,0.857-1.356,0.854-2.527C119.7,43.57,113.929,39.168,107.3,40.081
		 M132.95,40.084c-1.064,0.15-2.744,0.845-3.726,1.543l-0.576,0.409l-0.274-0.517c-0.964-1.815-3.953-1.717-4.907,0.161
		c-0.321,0.631-0.334,0.986-0.334,9.156c0,9.736-0.038,9.463,1.42,10.208c1.441,0.737,3.236,0.258,3.904-1.041
		c0.319-0.62,0.349-1.044,0.433-6c0.102-6.033,0.146-6.257,1.478-7.55c1.695-1.644,5.136-1.574,6.574,0.134
		c0.894,1.063,0.994,1.772,1.06,7.56c0.056,4.932,0.085,5.357,0.397,5.97c0.877,1.719,3.929,1.711,4.808-0.012
		c0.46-0.902,0.531-12.056,0.087-13.776C142.081,41.631,138.277,39.334,132.95,40.084 M190.55,40.022
		c-10.777,1.264-12.14,18.14-1.718,21.254c2.804,0.838,6.392,0.341,8.679-1.202c0.41-0.277,0.765-0.481,0.788-0.454
		c0.023,0.027,0.169,0.299,0.324,0.604c0.809,1.59,3.77,1.542,4.776-0.077l0.401-0.644v-8.667c0-8.442-0.009-8.682-0.342-9.249
		c-1.079-1.837-4.075-1.819-4.903,0.029l-0.285,0.638l-0.319-0.352C196.834,40.664,193.12,39.72,190.55,40.022 M218.243,40.089
		c-1.107,0.154-2.901,0.901-3.788,1.578l-0.52,0.397l-0.274-0.574c-0.963-2.02-4.486-1.551-5.094,0.679
		c-0.225,0.826-0.247,16.194-0.024,17.154c0.407,1.756,2.275,2.583,4.055,1.796c1.372-0.607,1.408-0.774,1.488-6.869
		c0.075-5.792,0.11-5.999,1.285-7.482c1.354-1.709,4.793-2.02,6.495-0.587c1.158,0.974,1.258,1.548,1.351,7.738
		c0.077,5.199,0.106,5.623,0.416,6.15c1.075,1.823,4.015,1.796,4.907-0.046c0.443-0.915,0.525-11.131,0.107-13.297
		C227.701,41.823,223.777,39.319,218.243,40.089 M241.967,40.022c-11.391,1.15-13.324,17.434-2.498,21.041
		c4.202,1.399,9.051,0.409,11.831-2.415c3.17-3.221-0.464-6.946-3.816-3.911c-3.411,3.089-8.335,1.725-9.207-2.551
		c-1.173-5.75,4.58-9.092,9.199-5.345c2.053,1.665,4.574,0.646,4.574-1.848C252.05,42.091,246.853,39.529,241.967,40.022
		 M264.3,40.082c-10.384,1.422-12.874,15.773-3.535,20.374c5.716,2.817,14.61,0.228,14.644-4.262
		c0.019-2.462-3.228-3.349-4.909-1.341c-2.16,2.58-7.342,2.013-8.955-0.98l-0.519-0.963l6.75,0.015
		c7.073,0.015,7.078,0.015,7.943-0.711c1.26-1.057,1.312-4.009,0.115-6.53C273.954,41.726,269.191,39.412,264.3,40.082
		 M290.3,40.083c-1.304,0.185-2.711,0.72-3.78,1.44c-0.851,0.572-1.126,0.558-1.134-0.061c-0.002-0.114-0.321-0.439-0.711-0.723
		c-1.374-1.001-3.458-0.534-4.208,0.941c-0.474,0.932-0.527,24.972-0.058,25.823c1.136,2.058,4.216,2.041,5.08-0.029
		c0.169-0.404,0.228-1.493,0.228-4.224v-3.681l0.541,0.406c4.696,3.521,12.5,1.484,14.905-3.889
		C304.978,47.564,299.06,38.846,290.3,40.083 M347.55,40.036c-5.513,0.43-8.746,4.631-7.165,9.309
		c0.931,2.758,3.147,3.789,8.738,4.068c3.725,0.186,4.636,0.587,4.065,1.789c-0.83,1.75-5.871,1.762-8.637,0.021
		c-2.376-1.496-4.377-0.811-4.765,1.632c-0.685,4.308,11.394,6.636,16.471,3.174c2.432-1.659,3.318-4.554,2.37-7.745
		c-0.839-2.827-3.108-3.953-8.451-4.195c-4.25-0.192-5.442-0.813-3.957-2.063c1.67-1.405,4.972-1.227,7.515,0.405
		c2.101,1.348,4.354,0.215,4.354-2.188C358.088,41.453,353.396,39.58,347.55,40.036 M174.633,40.4
		c-1.222,0.356-1.903,0.705-2.647,1.358l-0.568,0.499l-0.323-0.627c-0.961-1.862-3.766-1.92-4.896-0.103l-0.399,0.642v8.694v8.694
		l0.5,0.709c1.155,1.637,3.901,1.483,4.82-0.27c0.322-0.614,0.349-0.962,0.377-4.993c0.034-4.777,0.081-5.305,0.569-6.41
		c0.782-1.77,2.383-2.724,4.734-2.82c2.007-0.082,3.071-1.064,3.08-2.843C179.892,40.533,177.743,39.497,174.633,40.4
		 M317.218,40.562c-0.343,0.184-0.734,0.606-0.965,1.042l-0.389,0.732l0.056,6.25c0.063,6.978,0.162,7.639,1.457,9.657
		c2.319,3.614,8.642,4.644,12.39,2.019l0.916-0.642l0.392,0.593c1.017,1.539,3.358,1.609,4.55,0.137l0.508-0.628l0.046-8.7
		l0.046-8.701l-0.383-0.725c-0.986-1.863-3.913-1.82-5.015,0.073c-0.131,0.227-0.22,2.074-0.277,5.75
		c-0.093,6.036-0.117,6.173-1.351,7.578c-1.862,2.122-5.744,1.794-7.068-0.596l-0.498-0.898l-0.083-5.78
		c-0.093-6.447-0.051-6.224-1.332-7.095C319.508,40.144,318.057,40.112,317.218,40.562 M111.382,45.601
		c0.862,0.371,2.501,1.954,2.501,2.415c0,0.199-0.77,0.237-4.836,0.237h-4.837l0.327-0.641
		C105.63,45.469,108.865,44.519,111.382,45.601 M268.346,45.588c1.083,0.478,2.537,1.953,2.537,2.573
		c0,0.05-2.175,0.092-4.833,0.092s-4.833-0.042-4.833-0.092c0-0.479,1.094-1.712,2.04-2.298
		C264.571,45.05,266.847,44.927,268.346,45.588 M195.254,45.818c4.413,2.102,3.672,9.138-1.094,10.388
		c-3.63,0.952-6.527-1.468-6.527-5.453C187.633,46.458,191.432,43.998,195.254,45.818 M293.505,45.745
		c2.357,1.025,3.583,4.321,2.648,7.121c-1.707,5.11-9.09,4.531-10.202-0.8C284.994,47.475,289.264,43.901,293.505,45.745
		 M-19.95-53.414 M-19.95-53.414 M-19.95-53.414 M-19.95-53.414 M-19.95-53.414 M-19.95-53.414 M-19.95-53.414 M-19.95-53.414
		 M-19.95-53.414 M-19.95-53.414 M-19.95-53.414 M-19.95-53.414"/>
	<path id="path24" fill="#4DB96C" d="M42.883,21.255c-0.912,0.308-5.132,1.658-12.75,4.077c-2.2,0.698-4.3,1.374-4.666,1.501
		c-0.367,0.128-5.055,1.63-10.417,3.339c-5.363,1.709-10.706,3.413-11.875,3.787c-1.169,0.373-2.123,0.724-2.121,0.778
		c0.003,0.102,0.37,0.333,4.496,2.834c3.229,1.957,7.817,4.74,13.083,7.935c2.384,1.446,5.534,3.357,7,4.246
		c1.467,0.889,6.214,3.769,10.549,6.399l7.882,4.783l6.201-3.782c3.411-2.08,7.739-4.72,9.618-5.866
		c1.879-1.146,4.429-2.7,5.667-3.453c1.237-0.754,3.45-2.105,4.917-3.003c1.466-0.898,4.054-2.473,5.75-3.499
		c1.695-1.027,4.096-2.488,5.333-3.249c1.237-0.76,3.015-1.839,3.949-2.397c0.935-0.559,1.647-1.064,1.583-1.124
		c-0.063-0.059-1.015-0.388-2.115-0.73c-1.1-0.342-2.638-0.828-3.417-1.081c-0.779-0.252-2.429-0.774-3.667-1.16
		c-1.237-0.387-3.375-1.065-4.75-1.507c-2.665-0.858-7.53-2.4-10-3.168c-0.825-0.257-3.9-1.229-6.833-2.161
		c-2.933-0.931-5.933-1.881-6.667-2.11c-0.733-0.229-2.249-0.711-3.368-1.071C43.951,20.829,44.102,20.844,42.883,21.255
		 M51.728,26.645c3.981,1.224,11.614,3.567,16.961,5.207c8.528,2.616,9.685,3.009,9.417,3.205c-0.168,0.122-2.668,1.614-5.556,3.315
		c-2.888,1.702-8.1,4.783-11.583,6.848c-3.484,2.064-6.596,3.904-6.917,4.089c-0.321,0.184-1.933,1.135-3.583,2.114
		c-1.65,0.978-3.733,2.208-4.629,2.732l-1.628,0.954l-14.788-8.703c-8.134-4.787-15.059-8.861-15.389-9.053
		c-3.484-2.032-3.967-2.345-3.777-2.446c0.116-0.061,1.973-0.65,4.127-1.308s4.105-1.262,4.334-1.342
		c0.229-0.08,1.316-0.421,2.416-0.757c1.1-0.337,3.275-1.011,4.834-1.498c1.558-0.488,3.845-1.199,5.083-1.581
		c1.237-0.382,3.413-1.056,4.833-1.499c1.421-0.442,3.484-1.079,4.584-1.414c1.1-0.336,2.3-0.712,2.666-0.836
		C44.178,24.317,44.099,24.299,51.728,26.645 M87.002,36.919c-0.063,0.321-0.191,1.521-0.285,2.667
		c-0.093,1.146-0.208,2.346-0.254,2.667c-0.046,0.32-0.384,3.583-0.752,7.25c-0.368,3.666-0.778,7.754-0.911,9.083
		c-0.505,5.027-0.604,4.144,0.763,6.773c0.662,1.27,1.248,2.362,1.303,2.425c0.204,0.233,2.684-4.704,2.684-5.343
		c0-0.512-0.2-2.733-1.084-12.022c-0.347-3.651-0.637-6.758-0.924-9.916C87.148,36.169,87.148,36.171,87.002,36.919 M16.306,46.961
		c-0.06,0.185-0.353,1.996-0.506,3.125c-0.031,0.229-0.211,1.392-0.4,2.583c-1.749,11.046-1.702,10.453-0.91,11.518
		C19.24,70.569,31.903,77.609,41.133,79c6.369,0.959,15.336-1.129,20.435-4.76c0.247-0.176,0.493-0.321,0.546-0.321
		c0.101,0,3.265-2.082,4.662-3.067c1.925-1.358,4.96-4.054,6.733-5.98c1.135-1.234,1.24-1.61,0.88-3.171
		c-0.089-0.384-0.43-2.236-0.758-4.115c-0.328-1.879-0.703-4.017-0.835-4.75c-0.131-0.733-0.424-2.374-0.651-3.645
		c-0.227-1.271-0.45-2.349-0.495-2.394c-0.111-0.111-0.312,0.007-9.6,5.618c-15.713,9.491-18.061,10.893-18.238,10.889
		c-0.098-0.002-0.966-0.491-1.929-1.087c-0.962-0.595-2.8-1.72-4.083-2.498c-2.551-1.547-5.991-3.645-15.207-9.276
		C16.145,46.503,16.407,46.648,16.306,46.961 M22.038,53.99c7.767,5.085,15.049,9.31,20.948,12.155l1.332,0.643l1.991-1.014
		c3.321-1.691,10.269-5.636,12.824-7.282c0.459-0.295,2.034-1.268,3.5-2.163c1.467-0.894,3.441-2.11,4.387-2.701
		c0.945-0.591,1.74-1.049,1.767-1.017c0.225,0.276,1.982,9.646,1.898,10.128c-0.211,1.223-9.388,8.278-13.885,10.674
		c-10.74,5.722-28.337,1.551-38.446-9.112l-0.946-0.998l0.165-0.734c0.148-0.659,1.477-9.804,1.477-10.167
		C19.05,52.085,19.47,52.308,22.038,53.99 M-19.95-53.414 M-19.95-53.414 M-19.95-53.414 M-19.95-53.414"/>
</g>
</svg>
