<?xml version="1.0" encoding="utf-8"?>
<!-- Generator: Adobe Illustrator 17.0.0, SVG Export Plug-In . SVG Version: 6.00 Build 0)  -->
<!DOCTYPE svg PUBLIC "-//W3C//DTD SVG 1.1//EN" "http://www.w3.org/Graphics/SVG/1.1/DTD/svg11.dtd">
<svg version="1.1" id="Layer_1" xmlns="http://www.w3.org/2000/svg" xmlns:xlink="http://www.w3.org/1999/xlink" x="0px" y="0px"
	 width="300px" height="300px" viewBox="0 0 300 300" enable-background="new 0 0 300 300" xml:space="preserve">
<rect x="149.756" y="136.062" fill="#E0EFFA" stroke="#5290CD" stroke-width="3" stroke-miterlimit="10" width="21.198" height="99.078"/>
<rect x="123.249" y="167.86" fill="#E0EFFA" stroke="#5290CD" stroke-width="3" stroke-miterlimit="10" width="21.198" height="67.281"/>
<rect x="96.06" y="158.643" fill="#E0EFFA" stroke="#5290CD" stroke-width="3" stroke-miterlimit="10" width="21.198" height="76.498"/>
<rect x="68.488" y="176.155" fill="#E0EFFA" stroke="#5290CD" stroke-width="3" stroke-miterlimit="10" width="21.198" height="58.986"/>
<rect x="177.705" y="149.887" fill="#E0EFFA" stroke="#5290CD" stroke-width="3" stroke-miterlimit="10" width="21.198" height="85.253"/>
<rect x="204.051" y="107.952" fill="#E0EFFA" stroke="#5290CD" stroke-width="3" stroke-miterlimit="10" width="21.198" height="127.189"/>
<circle fill="#E0EFFA" stroke="#5290CD" stroke-width="3" stroke-miterlimit="10" cx="74.092" cy="143.127" r="5.76"/>
<circle fill="#E0EFFA" stroke="#5290CD" stroke-width="3" stroke-miterlimit="10" cx="101.82" cy="113.712" r="5.76"/>
<circle fill="#E0EFFA" stroke="#5290CD" stroke-width="3" stroke-miterlimit="10" cx="129.009" cy="118.473" r="5.76"/>
<circle fill="#E0EFFA" stroke="#5290CD" stroke-width="3" stroke-miterlimit="10" cx="161.355" cy="90.886" r="5.76"/>
<circle fill="#E0EFFA" stroke="#5290CD" stroke-width="3" stroke-miterlimit="10" cx="185.334" cy="101.64" r="5.76"/>
<circle fill="#E0EFFA" stroke="#5290CD" stroke-width="3" stroke-miterlimit="10" cx="214.65" cy="71.889" r="5.76"/>
<line fill="none" stroke="#5290CD" stroke-width="3" stroke-miterlimit="10" x1="76.719" y1="138.004" x2="97.775" y2="117.811"/>
<line fill="none" stroke="#5290CD" stroke-width="3" stroke-miterlimit="10" x1="107.581" y1="113.712" x2="123.249" y2="117.811"/>
<line fill="none" stroke="#5290CD" stroke-width="3" stroke-miterlimit="10" x1="133.848" y1="117.354" x2="155.594" y2="93.666"/>
<line fill="none" stroke="#5290CD" stroke-width="3" stroke-miterlimit="10" x1="166.399" y1="93.699" x2="179.952" y2="99.634"/>
<line fill="none" stroke="#5290CD" stroke-width="3" stroke-miterlimit="10" x1="190.248" y1="98.645" x2="211.13" y2="76.443"/>
</svg>
