<?xml version="1.0" encoding="utf-8"?>
<!-- Generator: Adobe Illustrator 17.0.0, SVG Export Plug-In . SVG Version: 6.00 Build 0)  -->
<!DOCTYPE svg PUBLIC "-//W3C//DTD SVG 1.1//EN" "http://www.w3.org/Graphics/SVG/1.1/DTD/svg11.dtd">
<svg version="1.1" id="Layer_1" xmlns="http://www.w3.org/2000/svg" xmlns:xlink="http://www.w3.org/1999/xlink" x="0px" y="0px"
	 width="300px" height="300px" viewBox="0 0 300 300" enable-background="new 0 0 300 300" xml:space="preserve">
<image display="none" overflow="visible" width="300" height="300" xlink:href="ep/images/home/features/one-to-one.png" >
</image>
<g>
	<g>
		<path fill="#E0EEFA" stroke="#5290CD" stroke-width="3" stroke-miterlimit="10" d="M253.403,188.237l13.037-66.324
			c0.738-3.753-1.706-7.392-5.458-8.13c-3.756-0.737-7.392,1.707-8.13,5.459l-11.939,60.736h-17.608
			c2.521-0.578,4.856-1.846,6.724-3.695c2.649-2.622,4.143-6.191,4.153-9.918l0.13-47.513c0.021-7.79-6.323-14.102-14.109-14.047
			l-12.886,0.092c-7.782,0.056-14.029,6.451-13.907,14.229l0.169,10.725l12.3-13.68l-12.655,22.683h-28.77
			c-4.621,0-8.365,3.745-8.365,8.366s3.745,8.366,8.365,8.366h33.682c3.033,0,5.828-1.642,7.305-4.29l13.011-23.321
			c-1.907,8.972-4.642,17.657-7.8,25.835c-1.371,3.551-4.484,6.283-8.77,6.961l-30.894-0.09c-3.29-0.024-6.425,1.598-8.323,4.383
			c-1.876,2.751-2.266,6.253-1.04,9.349L184.412,232c2.041,5.159,7.876,7.68,13.028,5.641c5.155-2.04,7.681-7.873,5.641-13.028
			l-2.902-7.333l9.045-23.452h26.297l16.013,41.522c0.919,2.383,3.594,3.562,5.968,2.646c2.379-0.918,3.563-3.59,2.646-5.968
			l-14.732-38.201h1.192C249.918,193.826,252.765,191.484,253.403,188.237z M195.167,204.614l-9.423-23.814l9.067,0.026
			c-2.145,1.177-3.6,3.455-3.6,6.074c0,3.824,3.1,6.925,6.925,6.925h1.192L195.167,204.614z"/>
	</g>
</g>
<g>
	<g>
		<circle fill="#E0EEFA" stroke="#5290CD" stroke-width="3" stroke-miterlimit="10" cx="202.87" cy="80.024" r="18.463"/>
	</g>
</g>
<g>
	<g>
		<path fill="#E0EEFA" stroke="#5290CD" stroke-width="3" stroke-miterlimit="10" d="M101.608,155.584h33.682
			c4.621,0,8.365-3.745,8.365-8.366s-3.745-8.365-8.365-8.365h-28.77l-12.656-22.682l12.299,13.68l0.169-10.725
			c0.123-7.782-6.128-14.174-13.907-14.229l-12.886-0.092c-7.79-0.056-14.131,6.261-14.109,14.047l0.13,47.513
			c0.01,3.727,1.505,7.296,4.154,9.918c1.869,1.849,4.203,3.117,6.724,3.695H58.831l-11.939-60.736
			c-0.737-3.753-4.378-6.196-8.13-5.459c-3.753,0.738-6.197,4.378-5.458,8.13l13.038,66.324c0.638,3.247,3.485,5.589,6.795,5.589
			h1.192l-14.732,38.2c-0.917,2.379,0.268,5.051,2.647,5.968c2.375,0.916,5.05-0.265,5.968-2.646l16.013-41.522H90.52l9.045,23.452
			l-2.902,7.333c-2.04,5.155,0.485,10.988,5.641,13.028c5.153,2.04,10.987-0.484,13.028-5.641l22.788-57.587
			c1.225-3.096,0.836-6.598-1.04-9.349c-1.861-2.73-4.974-4.383-8.293-4.383c-0.01,0-0.02,0-0.03,0
			c-32.839,0.096-30.766,0.109-31.096,0.057c-4.02-0.639-7.191-3.39-8.568-6.928l-7.8-25.835l13.012,23.321
			C95.78,153.942,98.576,155.584,101.608,155.584z M101.608,193.826L101.608,193.826c3.824,0,6.925-3.1,6.925-6.925
			c0-2.619-1.455-4.898-3.6-6.074L114,180.8l-9.424,23.814l-4.161-10.788C100.415,193.826,101.608,193.826,101.608,193.826z"/>
	</g>
</g>
<g>
	<g>
		<circle fill="#E0EEFA" stroke="#5290CD" stroke-width="3" stroke-miterlimit="10" cx="96.876" cy="80.024" r="18.463"/>
	</g>
</g>
</svg>
