<?xml version="1.0" encoding="utf-8"?>
<!-- Generator: Adobe Illustrator 17.0.0, SVG Export Plug-In . SVG Version: 6.00 Build 0)  -->
<!DOCTYPE svg PUBLIC "-//W3C//DTD SVG 1.1//EN" "http://www.w3.org/Graphics/SVG/1.1/DTD/svg11.dtd">
<svg version="1.1" id="Layer_1" xmlns="http://www.w3.org/2000/svg" xmlns:xlink="http://www.w3.org/1999/xlink" x="0px" y="0px"
	 width="300px" height="300px" viewBox="0 0 300 300" enable-background="new 0 0 300 300" xml:space="preserve">
<path fill="none" stroke="#5390CC" stroke-width="4" stroke-miterlimit="10" d="M285.922,207.307
	c0,8.714-7.003,15.779-15.641,15.779H29.051c-8.638,0-15.641-7.064-15.641-15.779V92.693c0-8.714,7.003-15.779,15.641-15.779h241.23
	c8.638,0,15.641,7.064,15.641,15.779V207.307z"/>
<line fill="none" stroke="#5390CC" stroke-width="4" stroke-miterlimit="10" x1="14.239" y1="100.841" x2="286.589" y2="100.841"/>
<path fill="#E0EFFA" stroke="#5390CC" stroke-width="4" stroke-miterlimit="10" d="M63.165,205.214c0,1.657-1.343,3-3,3H44.967
	c-1.657,0-3-1.343-3-3v-64.507c0-1.657,1.343-3,3-3h15.198c1.657,0,3,1.343,3,3V205.214z"/>
<path fill="#E0EFFA" stroke="#5390CC" stroke-width="4" stroke-miterlimit="10" d="M101.414,206.058c0,1.657-1.343,3-3,3h-16.12
	c-1.657,0-3-1.343-3-3v-78.332c0-1.657,1.343-3,3-3h16.12c1.657,0,3,1.343,3,3V206.058z"/>
<path fill="#E0EFFA" stroke="#5390CC" stroke-width="4" stroke-miterlimit="10" d="M139.202,205.214c0,1.657-1.343,3-3,3h-15.198
	c-1.657,0-3-1.343-3-3v-46.995c0-1.657,1.343-3,3-3h15.198c1.657,0,3,1.343,3,3V205.214z"/>
<path fill="#E0EFFA" stroke="#5390CC" stroke-width="4" stroke-miterlimit="10" d="M180.755,207.058c0,1.657-1.343,3-3,3h-15.659
	c-1.657,0-3-1.343-3-3v-88.009c0-1.657,1.343-3,3-3h15.659c1.657,0,3,1.343,3,3V207.058z"/>
<path fill="#E0EFFA" stroke="#5390CC" stroke-width="4" stroke-miterlimit="10" d="M219.847,207.058c0,1.657-1.343,3-3,3h-13.816
	c-1.657,0-3-1.343-3-3v-22.341c0-1.657,1.343-3,3-3h13.816c1.657,0,3,1.343,3,3V207.058z"/>
<path fill="#E0EFFA" stroke="#5390CC" stroke-width="4" stroke-miterlimit="10" d="M259.939,207.058c0,1.657-1.343,3-3,3H241.28
	c-1.657,0-3-1.343-3-3V153c0-1.657,1.343-3,3-3h15.659c1.657,0,3,1.343,3,3V207.058z"/>
</svg>
