<?xml version="1.0" encoding="utf-8"?>
<!-- Generator: Adobe Illustrator 17.0.0, SVG Export Plug-In . SVG Version: 6.00 Build 0)  -->
<!DOCTYPE svg PUBLIC "-//W3C//DTD SVG 1.1//EN" "http://www.w3.org/Graphics/SVG/1.1/DTD/svg11.dtd">
<svg version="1.1" id="Layer_1" xmlns="http://www.w3.org/2000/svg" xmlns:xlink="http://www.w3.org/1999/xlink" x="0px" y="0px"
	 width="300px" height="300px" viewBox="0 0 300 300" enable-background="new 0 0 300 300" xml:space="preserve">
<g id="surface1">
	<path fill="#DFEEFA" d="M78.391,233.341c-2.259,0-4.371-0.874-5.97-2.474c-1.6-1.583-2.474-3.711-2.474-5.97
		c0-2.243,0.874-4.371,2.474-5.97l76.971-73.392l8.378,8.395L84.312,230.9C82.762,232.467,80.634,233.341,78.391,233.341z"/>
	<path fill="#5290CD" d="M149.359,148.503l5.459,5.459l-71.957,75.42c-1.187,1.187-2.787,1.847-4.469,1.847
		c-1.699,0-3.282-0.66-4.486-1.847c-2.457-2.474-2.457-6.482-0.066-8.889L149.359,148.503 M149.441,142.599L70.92,217.442
		c-4.107,4.123-4.107,10.803,0,14.926c2.062,2.062,4.766,3.084,7.471,3.084s5.393-1.023,7.455-3.084l74.876-78.471L149.441,142.599z
		"/>
	<path fill="#E0EFFB" d="M173.388,182.676c-29.109,0-52.776-23.667-52.776-52.776s23.667-52.776,52.776-52.776
		s52.776,23.667,52.776,52.776S202.498,182.676,173.388,182.676z"/>
	<path fill="#4688C8" d="M173.388,79.235c27.938,0,50.665,22.727,50.665,50.665s-22.727,50.665-50.665,50.665
		s-50.665-22.727-50.665-50.665S145.45,79.235,173.388,79.235 M173.388,75.013c-30.313,0-54.887,24.574-54.887,54.887
		s24.574,54.887,54.887,54.887s54.887-24.574,54.887-54.887S203.702,75.013,173.388,75.013z"/>
</g>
<circle fill="#E0EFFB" stroke="#5290CD" stroke-width="3" stroke-miterlimit="10" cx="55.751" cy="147.065" r="7.373"/>
<circle fill="#E0EFFB" stroke="#5290CD" stroke-width="3" stroke-miterlimit="10" cx="93.157" cy="128.327" r="7.373"/>
<circle fill="#E0EFFB" stroke="#5290CD" stroke-width="3" stroke-miterlimit="10" cx="131.866" cy="110.894" r="7.373"/>
<circle fill="#E0EFFB" stroke="#5290CD" stroke-width="3" stroke-miterlimit="10" cx="180.947" cy="128.327" r="7.373"/>
<circle fill="#E0EFFB" stroke="#5290CD" stroke-width="3" stroke-miterlimit="10" cx="239.362" cy="103.238" r="7.373"/>
<line fill="none" stroke="#5290CD" stroke-width="3" stroke-miterlimit="10" x1="63.124" y1="143.074" x2="85.783" y2="132.475"/>
<line fill="none" stroke="#5290CD" stroke-width="3" stroke-miterlimit="10" x1="100.53" y1="124.641" x2="124.493" y2="113.12"/>
<line fill="none" stroke="#5290CD" stroke-width="3" stroke-miterlimit="10" x1="138.896" y1="113.12" x2="173.574" y2="124.641"/>
<line fill="none" stroke="#5290CD" stroke-width="3" stroke-miterlimit="10" x1="188.32" y1="128.327" x2="231.988" y2="107.129"/>
<line fill="none" stroke="#5290CD" stroke-width="3" stroke-miterlimit="10" x1="245.735" y1="97.865" x2="264.507" y2="65.889"/>
<line fill="none" stroke="#5290CD" stroke-width="3" stroke-miterlimit="10" x1="266.507" y1="63.889" x2="249.917" y2="67.576"/>
<line fill="none" stroke="#5290CD" stroke-width="3" stroke-miterlimit="10" x1="265.507" y1="63.889" x2="268.272" y2="79.877"/>
</svg>
