<?xml version="1.0" encoding="utf-8"?>
<!-- Generator: Adobe Illustrator 17.0.0, SVG Export Plug-In . SVG Version: 6.00 Build 0)  -->
<!DOCTYPE svg PUBLIC "-//W3C//DTD SVG 1.1//EN" "http://www.w3.org/Graphics/SVG/1.1/DTD/svg11.dtd">
<svg version="1.1" id="Layer_1" xmlns="http://www.w3.org/2000/svg" xmlns:xlink="http://www.w3.org/1999/xlink" x="0px" y="0px"
	 width="900px" height="150px" viewBox="0 0 900 150" enable-background="new 0 0 900 150" xml:space="preserve">
<g transform="translate(0.000000,150.000000) scale(0.100000,-0.100000)">
	<path fill="#53AD5E" d="M1025,1421c-27-10-104-35-170-56c-66-20-151-47-190-60c-38-12-144-46-235-75c-91-28-197-63-237-76
		c-39-13-82-24-95-24s-30-5-38-10c-13-8-13-11,0-23c28-26,1021-617,1037-617c9,0,31,11,49,25s35,25,38,25s22,12,43,26s47,30,58,35
		s32,17,47,27c15,9,198,120,407,246c210,126,386,235,392,242c8,10,5,14-18,19c-40,9-127,34-208,60c-38,13-124,40-190,60
		s-138,43-160,50c-22,8-107,35-190,60c-82,26-177,55-209,66C1085,1444,1088,1444,1025,1421z M1200,1346c41-13,109-34,150-46
		s93-28,115-35s85-27,140-43c55-17,144-44,199-61c54-17,107-31,117-31c13,0,19-7,19-24c0-20-11-30-52-50c-29-15-60-31-68-36
		c-45-28-373-220-376-220c-2,0-79-45-171-100s-173-100-179-100s-63,31-126,70c-63,38-120,70-127,70c-6,0-11,4-11,9s-12,14-27,20
		c-16,6-44,20-63,32s-83,50-141,85c-59,35-112,64-118,64s-11,4-11,9s-12,14-27,20c-16,6-50,25-78,42c-27,16-65,37-82,45
		c-34,15-46,51-20,58c6,2,48,14,92,26c44,13,112,33,150,45c39,12,104,32,145,45c41,12,107,32,145,45c39,12,104,33,145,45
		s84,25,95,30C1070,1375,1123,1371,1200,1346z"/>
	<path fill="#4C4C4C" d="M7667,1172c-15-17-17-56-17-350V491l27-20c28-23,56-21,83,5c13,12,15,66,18,339c2,288,1,327-14,350
		C7744,1196,7692,1199,7667,1172z"/>
	<path fill="#4C4C4C" d="M3700,1110c-19-19-20-33-20-265c0-257,5-290,48-339c45-51,164-72,233-41c87,37,122,102,79,145
		c-28,28-52,25-100-15c-44-37-65-42-91-22c-31,24-39,56-39,156c0,119,1,120,105,113c69-4,75-3,99,21c30,30,32,45,12,73
		c-12,16-30,20-113,24l-98,5l-5,68c-4,53-10,72-24,83C3758,1136,3723,1133,3700,1110z"/>
	<path fill="#4C4C4C" d="M2663,970c-91-19-159-70-194-145c-26-56-26-171,1-230c25-55,89-110,152-131c106-35,249-1,305,72
		c23,31,25,37,13,59c-18,34-65,42-99,18c-93-70-164-70-230,0c-42,46-28,52,133,54c81,0,162,4,180,7c47,9,60,42,45,115
		c-9,47-19,64-63,106C2839,961,2751,988,2663,970z M2803,829c63-52,53-59-81-59c-65,0-121,3-125,6c-11,11,6,35,42,59
		C2692,872,2754,869,2803,829z"/>
	<path fill="#4C4C4C" d="M3310,971c-19-4-49-15-67-26c-30-18-31-18-61,4c-37,26-64,27-86,2c-15-17-17-44-17-228c0-114,0-215,1-224
		c0-23,47-51,70-44c45,14,50,30,50,166c0,108,3,136,19,167c40,77,125,95,185,38l36-33V652c0-77,3-148,6-157c4-8,19-22,35-30
		c35-19,77-3,85,31c3,12,4,96,2,186c-3,160-4,166-31,206C3494,954,3399,989,3310,971z"/>
	<path fill="#4C4C4C" d="M4750,973c-76-13-150-64-182-127c-33-62-32-204,1-266c13-24,35-55,49-68c78-73,218-82,303-20
		c14,9,23,7,49-15c39-33,54-34,85-2c25,24,25,24,25,238c0,210,0,214-23,235c-29,27-58,28-82,2c-22-25-29-25-79-1
		C4852,970,4790,980,4750,973z M4884,834c105-72,80-228-43-265c-38-11-47-10-86,9c-77,37-108,137-65,208C4736,860,4816,880,4884,834
		z"/>
	<path fill="#4C4C4C" d="M5445,971c-16-4-47-16-68-26c-37-17-38-17-61,4c-26,25-53,27-84,5c-22-15-22-19-22-239c0-186,3-226,15-239
		c25-24,52-28,80-10c25,16,25,19,25,139c0,143,9,178,58,223c50,45,99,45,150-2l37-34l3-151c4-148,4-151,29-171c33-26,49-25,78,5
		c24,23,25,29,25,153c0,71-5,154-11,185c-13,64-54,121-103,141C5553,972,5482,980,5445,971z"/>
	<path fill="#4C4C4C" d="M6025,970c-92-16-154-59-190-130c-32-63-35-182-6-246c69-151,307-193,432-74c45,42,47,57,18,94
		c-27,34-58,33-99-4c-87-78-194-53-236,55c-23,62-9,111,48,159c55,48,107,49,166,6c51-36,94-39,116-8c24,34,20,53-19,87
		C6194,962,6110,985,6025,970z"/>
	<path fill="#4C4C4C" d="M6595,970c-143-24-218-113-218-260c0-91,22-140,84-193c103-89,282-90,374-2c41,38,46,76,13,99
		c-32,23-47,20-108-19c-63-40-103-44-159-16c-46,24-64,44-59,68c3,16,18,18,165,20c95,1,170,6,182,13c26,14,35,48,26,105
		C6878,903,6730,994,6595,970z M6716,839c36-22,58-52,47-63c-3-3-60-6-125-6c-120,0-131,4-109,38C6561,859,6659,875,6716,839z"/>
	<path fill="#4C4C4C" d="M7240,969c-25-5-57-18-72-29l-27-20l-29,25c-34,28-59,31-88,11c-18-14-19-31-22-330l-3-316l25-25
		c30-30,45-31,80-4c25,19,26,25,26,115c0,52,4,94,9,94s28-9,52-20c81-37,202-19,265,38c53,48,84,123,84,202
		C7540,885,7406,1001,7240,969z M7344,834c104-71,80-228-42-265c-36-10-45-9-86,10c-55,27-86,73-86,130c0,55,21,94,67,126
		C7246,868,7294,868,7344,834z"/>
	<path fill="#4C4C4C" d="M8670,971c-92-13-155-63-166-133c-20-122,37-171,215-185c73-6,96-12,105-25c19-31-23-61-91-66
		c-50-3-66,0-118,28c-67,35-94,34-115-6c-20-36,2-71,65-103c44-23,61-26,155-26c93,0,111,3,154,25c81,42,110,131,67,210
		c-29,55-68,72-185,79c-110,8-126,13-126,40c0,54,118,68,200,24c44-24,52-25,74-14c34,19,42,58,18,90C8888,955,8770,984,8670,971z"
		/>
	<path fill="#4C4C4C" d="M4162,947c-21-22-22-31-22-236c0-212,0-212,25-236c31-31,49-31,80,0c24,23,25,30,25,140
		c0,166,22,209,119,224c60,9,91,34,91,71c0,36-29,60-72,60c-39,0-98-18-98-30c0-20-32-17-59,5C4215,976,4190,977,4162,947z"/>
	<path fill="#4C4C4C" d="M7910,943c-20-26-21-36-17-178c5-173,15-212,62-258c70-68,207-77,277-19c15,12,21,11,51-12
		c41-31,47-32,81-5l26,20v219c0,213-1,220-22,240c-26,24-55,25-83,4c-18-13-21-30-25-162c-6-167-13-187-80-217c-47-21-78-15-123,24
		l-32,29l-3,156c-4,146-5,157-25,171C7965,978,7934,973,7910,943z"/>
	<path fill="#53AD5E" d="M2157,920c-3-19-13-114-22-210c-8-96-18-202-21-235c-4-47-1-70,15-107c11-27,24-48,30-48c5,0,18,18,30,40
		c25,49,26,94,6,285c-8,77-16,165-16,195c-1,30-5,69-9,85l-7,30L2157,920z"/>
	<path fill="#53AD5E" d="M405,778c-2-13-11-70-20-128c-8-58-20-131-26-164c-6-32-8-68-5-80c6-26,101-119,173-169
		C635,162,793,86,925,47c55-17,97-21,195-21c110,0,134,3,205,28c167,58,347,170,466,289c58,58,56,40,24,217c-8,47-19,117-25,155
		c-13,81-22,95-47,73c-38-32-642-388-660-388c-16,0-50,19-139,78c-10,6-28,17-39,22c-11,6-33,19-50,30c-16,11-39,24-50,30
		s-33,19-50,30c-16,11-37,23-45,27s-33,19-54,35c-21,15-45,28-52,28s-14,4-16,8c-1,5-36,28-76,52c-40,23-75,46-78,51
		C424,807,410,800,405,778z M539,648c83-57,364-222,464-273c89-45,100-48,120-35c12,7,51,29,87,47c36,19,72,38,80,43s89,52,180,106
		c91,53,174,105,186,115c23,22,63,25,68,7c2-7,11-56,21-108c9-52,19-103,22-113c6-22-66-94-182-180c-27-20-54-40-60-45
		c-23-18-113-69-150-85c-161-68-381-62-580,18c-119,48-241,127-339,219c-33,32-37,41-32,69c3,18,10,68,16,112
		C459,699,461,701,539,648z"/>
</g>
</svg>
