<svg xmlns="http://www.w3.org/2000/svg" viewBox="0 0 512 512"><style>.a{fill:#F2F2F2;}.b{fill:#F14336;}.c{fill:#D32E2A;}</style><polygon points="485 122.8 452.3 451 59.7 451 33.4 129.2 256 253.8 " class="a"/><polygon points="473.9 61 256 265.7 38.1 61 256 61 " class="a"/><path d="M59.7 155.5v295.5H24.1C10.8 451 0 440.2 0 426.9V112l39 1.1L59.7 155.5z" class="b"/><path d="M512 112v314.9c0 13.3-10.8 24.1-24.2 24.1h-35.6V155.5l19.7-46.5L512 112z" class="c"/><path d="M512 85.1v26.8l-59.7 43.5L256 298.6 59.7 155.5 0 112V85.1c0-13.3 10.8-24.1 24.1-24.1h14L256 219.8 473.9 61h14C501.2 61 512 71.8 512 85.1z" class="b"/><polygon points="59.7 155.5 0 146.2 0 112 " class="c"/></svg>