<svg xmlns="http://www.w3.org/2000/svg" viewBox="0 0 291.3 291.3"><path d="M145.7 0c80.5 0 145.7 65.2 145.7 145.7 0 80.5-65.2 145.7-145.7 145.7S0 226.1 0 145.7C0 65.2 65.2 0 145.7 0z" fill="#26A6D1"/><path d="M236.7 98.1c-6.4 2.7-13.2 4.6-20.4 5.4 7.3-4.3 13-11 15.6-19.1 -6.9 4-14.5 6.8-22.5 8.4 -6.5-6.7-15.7-10.9-25.9-10.9 -19.6 0-35.5 15.4-35.5 34.4 0 2.7 0.3 5.3 0.9 7.9 -29.5-1.4-55.7-15.2-73.2-36 -3.1 5.1-4.8 11-4.8 17.3 0 11.9 6.3 22.5 15.8 28.7 -5.8-0.2-11.3-1.7-16.1-4.3v0.4c0 16.7 12.2 30.6 28.5 33.8 -3 0.8-6.1 1.2-9.3 1.2 -2.3 0-4.5-0.2-6.7-0.6 4.5 13.7 17.6 23.7 33.2 23.9 -12.2 9.2-27.5 14.7-44.1 14.7 -2.9 0-5.7-0.2-8.5-0.5 15.7 9.8 34.4 15.5 54.4 15.5 65.3 0 101-52.5 101-98l-0.1-4.5C225.9 111.1 232 105 236.7 98.1z" fill="#FFF"/></svg>