<svg xmlns="http://www.w3.org/2000/svg" viewBox="0 0 58 58"><path d="M0 58l5-15C2.5 38.8 1 33.8 1 28.5 1 12.8 13.8 0 29.5 0S58 12.8 58 28.5 45.2 57 29.5 57c-4.8 0-9.3-1.2-13.3-3.3L0 58z" fill="#2CB742"/><path d="M47.7 38c-1.3-2.5-6.2-5.3-6.2-5.3 -1.1-0.6-2.4-0.7-3 0.4 0 0-1.6 1.9-2 2.2 -1.8 1.2-3.5 1.2-5.2-0.5l-4-4 -4-4c-1.7-1.7-1.8-3.4-0.5-5.2 0.3-0.4 2.2-2 2.2-2 1.1-0.6 1-2 0.4-3 0 0-2.8-4.9-5.3-6.2 -1.1-0.6-2.4-0.4-3.2 0.5l-1.8 1.8c-5.6 5.6-2.8 11.9 2.7 17.5l5.1 5.1 5.1 5.1c5.6 5.6 11.9 8.3 17.5 2.7l1.8-1.8C48 40.3 48.2 39 47.7 38z" fill="#FFF"/></svg>
