<?xml version="1.0" encoding="utf-8"?>
<!-- Generator: Adobe Illustrator 17.0.0, SVG Export Plug-In . SVG Version: 6.00 Build 0)  -->
<!DOCTYPE svg PUBLIC "-//W3C//DTD SVG 1.1//EN" "http://www.w3.org/Graphics/SVG/1.1/DTD/svg11.dtd">
<svg version="1.1" id="Layer_1" xmlns="http://www.w3.org/2000/svg" xmlns:xlink="http://www.w3.org/1999/xlink" x="0px" y="0px"
	 width="410px" height="410px" viewBox="0 0 410 410" enable-background="new 0 0 410 410" xml:space="preserve">
<g>
	<path opacity="0.25" fill="#2A3C4E" enable-background="new    " d="M86.326,191.689l-3.308,13.495l0,0
		c-9.399,6.354-21.476,7.089-31.663,2.048l-3.938-1.943l7.666-18.536l0,0c6.354,8.717,18.116,11.552,27.778,6.721L86.326,191.689z"
		/>
	<path fill="#98A8B3" d="M251.783,344.964l-12.129,21.266l0,0c4.306,19.534,18.799,35.181,37.912,41.01l7.404,2.258l12.759-32.977
		l0,0c-18.693,3.361-37.124-7.246-43.635-25.1L251.783,344.964z"/>
	<path opacity="0.25" fill="#2A3C4E" enable-background="new    " d="M336.219,118.49l17.906-34.289l0,0
		c25.205,5.093,43.058,27.568,42.376,53.297l-0.106,3.466l-15.753,20.269l-0.945-6.931
		C376.861,132.773,357.852,117.125,336.219,118.49L336.219,118.49z"/>
	<path opacity="0.25" fill="#2A3C4E" enable-background="new    " d="M54.505,296.498l22.527,11.605l-1.575,2.679
		c-10.712,17.958-30.823,28.145-51.617,26.255l0,0L0,316.766l6.249,1.155C25.205,321.387,44.371,312.881,54.505,296.498
		L54.505,296.498z"/>
	<path opacity="0.25" fill="#2A3C4E" enable-background="new    " d="M337.846,247.349l2.521,27.147l0,0
		c16.434,15.018,39.644,20.059,60.805,13.18l8.193-2.679l-9.452-38.227l0,0c-14.913,15.018-38.49,17.118-55.818,4.936
		L337.846,247.349z"/>
	<g>
		<g>
			<path fill="#FECC8B" d="M16.698,184.337c0.21,0.473,1.103,1.733,1.995,2.73c0.893,0.998,2.573,2.836,3.833,3.991
				c1.208,1.208,2.363,2.31,2.468,2.572c0.158,0.21,0.683,1.313,1.208,2.416c0.525,1.103,1.47,2.835,2.153,3.833
				c0.683,0.997,2.573,2.783,4.201,3.885c1.628,1.103,4.673,3.151,6.774,4.463c2.1,1.366,3.938,2.416,4.043,2.363
				c0.105-0.053,1.26-0.525,2.888-1.208c0.158-0.158,0.315-0.263,0.525-0.42c1.89-1.523,3.728-3.571,4.148-4.516
				c0.42-0.946,0.63-2.573,0.525-3.676c-0.105-0.893-0.368-2.625-0.735-4.201c-0.158-0.368-0.263-0.735-0.42-1.05
				c-0.525-1.26-0.998-2.888-1.103-3.676c-0.105-0.788,0.053-2.468,0.263-3.729c0.263-1.26,0.578-2.888,0.788-3.571
				c0.158-0.683,0-1.68-0.368-2.258c-0.368-0.525-1.26-0.841-1.943-0.683c-0.683,0.158-1.68,0.683-2.205,1.208
				c-0.525,0.472-1.05,1.522-1.208,2.363c-0.158,0.788-0.263,2.047-0.263,2.783c0.053,0.735-0.263,1.733-0.683,2.205
				c-0.42,0.472-1.418,1.103-2.258,1.365s-2.678,0.368-3.991,0.21c-1.365-0.158-3.361-0.683-4.463-1.208
				c-1.103-0.473-2.31-1.313-2.678-1.838c-0.368-0.525-1.313-2.31-1.995-4.043c-0.735-1.733-1.943-4.148-2.783-5.461
				c-0.788-1.313-1.943-2.468-2.52-2.52c-0.578-0.105-1.313-0.053-1.68,0.105c-0.368,0.158-0.683,0.578-0.788,0.945
				c-0.105,0.368,0,0.998,0.158,1.418s0.263,0.788,0.21,0.84c-0.053,0.053-0.263,0.263-0.42,0.42
				c-0.158,0.158-0.368,0.683-0.368,1.155c-0.053,0.473-0.158,0.893-0.21,0.893c-0.053,0-0.525-0.105-0.998-0.315
				c-0.473-0.21-1.155-0.263-1.47-0.105c-0.368,0.105-0.735,0.472-0.84,0.788C16.435,183.182,16.488,183.865,16.698,184.337z"/>
			<path fill="#F0F1F2" d="M47.416,220.779c1.943,1.575,3.938,3.098,5.986,4.463l0.053,0.053c4.411,2.993,8.979,5.461,13.757,7.509
				c6.039,2.572,12.287,4.358,18.641,5.355c5.198,0.788,10.449,1.05,15.648,0.788c6.144-0.367,12.235-1.47,18.168-3.36
				c4.936-1.575,9.767-3.729,14.388-6.459c4.621-2.679,8.979-5.934,13.127-9.767l-5.724-6.511c-2.993,2.415-6.144,4.516-9.504,6.248
				c-4.673,2.468-9.609,4.201-14.703,5.356c-5.514,1.208-11.132,1.628-16.751,1.313c-5.251-0.315-10.502-1.313-15.49-2.993
				c-3.991-1.313-7.771-3.098-11.395-5.251c-1.733-1.05-3.413-2.205-5.041-3.466c-2.52-1.943-4.936-4.148-7.141-6.564
				c-0.053-0.053-0.105-0.105-0.158-0.21l-0.368-0.368L47.416,220.779z"/>
			<path fill="#C3D2D8" d="M38.542,214.268c3.571,5.251,7.824,10.03,12.655,14.231l0.945,0.84c0.998-1.575,2.1-3.098,3.256-4.621
				c3.938-4.988,8.664-9.242,13.968-12.655c0.105-0.053,0.21-0.158,0.315-0.21h0.053l-0.105-0.105
				c-2.363-2.52-4.831-4.883-7.456-7.036c-2.625-2.205-5.408-4.201-8.297-6.092c-0.105,0.105-0.158,0.158-0.263,0.263
				c-0.735,0.63-1.418,1.26-2.1,1.943c-2.363,2.205-4.621,4.411-6.826,6.669c-2.1,2.153-4.043,4.358-5.934,6.511
				C38.7,214.11,38.647,214.215,38.542,214.268z"/>
			<path fill="#FECC8B" d="M337.636,184.337c-0.209,0.473-1.103,1.733-1.995,2.73c-0.893,0.998-2.573,2.836-3.834,3.991
				c-1.207,1.208-2.363,2.31-2.467,2.572c-0.158,0.21-0.683,1.313-1.208,2.416c-0.525,1.103-1.47,2.835-2.153,3.833
				c-0.683,0.997-2.573,2.783-4.201,3.885c-1.628,1.103-4.673,3.151-6.774,4.463c-2.1,1.366-3.938,2.416-4.043,2.363
				c-0.106-0.053-1.26-0.525-2.888-1.208c-0.158-0.158-0.315-0.263-0.525-0.42c-1.89-1.523-3.728-3.571-4.148-4.516
				c-0.421-0.946-0.63-2.573-0.525-3.676c0.104-0.893,0.367-2.625,0.735-4.201c0.157-0.368,0.263-0.735,0.42-1.05
				c0.525-1.26,0.998-2.888,1.104-3.676c0.104-0.788-0.054-2.468-0.263-3.729c-0.263-1.26-0.579-2.888-0.788-3.571
				c-0.158-0.683,0-1.68,0.367-2.258c0.367-0.525,1.26-0.841,1.942-0.683c0.683,0.158,1.681,0.683,2.206,1.208
				c0.525,0.472,1.05,1.522,1.207,2.363c0.158,0.788,0.263,2.047,0.263,2.783c-0.052,0.735,0.263,1.733,0.683,2.205
				c0.421,0.472,1.417,1.103,2.258,1.365c0.84,0.263,2.678,0.368,3.991,0.21c1.365-0.158,3.361-0.683,4.463-1.208
				c1.103-0.473,2.31-1.313,2.678-1.838c0.368-0.525,1.313-2.31,1.996-4.043c0.734-1.733,1.942-4.148,2.783-5.461
				c0.788-1.313,1.943-2.468,2.521-2.52c0.578-0.105,1.313-0.053,1.68,0.105c0.368,0.158,0.683,0.578,0.788,0.945
				c0.106,0.368,0,0.998-0.157,1.418c-0.158,0.42-0.263,0.788-0.21,0.84c0.052,0.053,0.263,0.263,0.42,0.42
				c0.158,0.158,0.368,0.683,0.368,1.155c0.052,0.473,0.157,0.893,0.21,0.893c0.052,0,0.525-0.105,0.997-0.315
				c0.473-0.21,1.156-0.263,1.471-0.105c0.367,0.105,0.735,0.472,0.84,0.788C337.898,183.182,337.846,183.865,337.636,184.337z"/>
			<path fill="#C3D2D8" d="M306.918,220.779c-1.942,1.575-3.938,3.098-5.985,4.463l-0.054,0.053
				c-4.41,2.993-8.979,5.461-13.757,7.509c-6.039,2.572-12.287,4.358-18.641,5.355c-5.198,0.788-10.449,1.05-15.648,0.788
				c-6.143-0.367-12.234-1.47-18.168-3.36c-4.936-1.575-9.767-3.729-14.388-6.459c-4.62-2.679-8.979-5.934-13.127-9.767l5.724-6.511
				c2.994,2.415,6.144,4.516,9.504,6.248c4.673,2.468,9.61,4.201,14.703,5.356c5.514,1.208,11.133,1.628,16.751,1.313
				c5.251-0.315,10.502-1.313,15.49-2.993c3.991-1.313,7.772-3.098,11.395-5.251c1.732-1.05,3.413-2.205,5.041-3.466
				c2.52-1.943,4.936-4.148,7.141-6.564c0.053-0.053,0.104-0.105,0.158-0.21l0.367-0.368L306.918,220.779z"/>
			<path fill="#98A8B3" d="M315.792,214.268c-3.57,5.251-7.824,10.03-12.655,14.231l-0.946,0.84c-0.997-1.575-2.1-3.098-3.255-4.621
				c-3.938-4.988-8.664-9.242-13.968-12.655c-0.106-0.053-0.21-0.158-0.315-0.21h-0.054l0.106-0.105
				c2.363-2.521,4.831-4.884,7.457-7.037c2.625-2.205,5.409-4.201,8.297-6.092c0.104,0.105,0.157,0.158,0.263,0.263
				c0.735,0.63,1.417,1.26,2.1,1.943c2.363,2.205,4.62,4.411,6.826,6.669c2.1,2.153,4.043,4.358,5.933,6.511
				C315.635,214.11,315.687,214.215,315.792,214.268z"/>
			<path fill="#212D36" d="M230.937,300.803c0,0.052,0,0.052,0,0.104c-0.052,0.63-0.158,1.26-0.263,1.838
				c-0.053,0.21-0.053,0.421-0.104,0.63c-0.054,0.21-0.054,0.42-0.106,0.63s-0.053,0.42-0.104,0.63
				c-0.053,0.21-0.053,0.368-0.106,0.578c0,0.053,0,0.053,0,0.105c-0.052,0.158-0.052,0.368-0.104,0.525
				c-0.104,0.578-0.263,1.155-0.421,1.733c0,0.053,0,0.053-0.052,0.105c-0.263,0.998-0.525,1.943-0.84,2.888
				c-0.053,0.105-0.053,0.21-0.104,0.315c-0.054,0.21-0.158,0.421-0.21,0.63c-0.052,0.105-0.052,0.21-0.106,0.316
				c-0.263,0.683-0.525,1.417-0.788,2.1c-0.053,0.158-0.157,0.367-0.209,0.525c-0.21,0.525-0.473,0.997-0.683,1.522
				c-0.63,1.313-1.313,2.625-2.1,3.833c-0.473,0.788-0.998,1.575-1.523,2.31c-0.682,0.893-1.365,1.785-2.048,2.625
				c-0.578,0.683-1.155,1.26-1.784,1.89c-0.158,0.158-0.316,0.316-0.473,0.421c-1.365,1.313-2.836,2.415-4.359,3.413
				c-0.157,0.104-0.315,0.21-0.525,0.315c-0.367,0.21-0.682,0.42-1.05,0.578c-0.367,0.21-0.682,0.368-1.05,0.525
				c-0.682,0.368-1.417,0.63-2.153,0.893l0,0c0,0.053,0,0.158,0,0.21h-65.585c-6.039-2.1-11.5-6.669-15.49-13.18
				c-1.523-2.467-2.783-5.146-3.781-7.981c-0.158-0.421-0.315-0.841-0.42-1.26c-0.998-3.046-1.68-6.301-2.1-9.609
				c0-0.053,0-0.053,0-0.105h108.642V300.803z"/>
			<path fill="#F0F1F2" d="M230.937,300.803c0,0.052,0,0.052,0,0.104c-4.359,0.893-8.874,1.733-13.548,2.416
				c-0.734,0.105-1.47,0.21-2.205,0.315c-7.561,1.05-15.438,1.785-23.629,2.205c-1.68,0.105-3.361,0.158-5.041,0.21
				c-3.256,0.104-6.564,0.158-9.924,0.158c-3.361,0-6.669-0.053-9.924-0.158c-1.68-0.053-3.361-0.105-5.041-0.21
				c-12.287-0.63-23.945-1.995-34.656-3.991l0,0c-1.575-0.316-3.151-0.63-4.726-0.946c0-0.053,0-0.053,0-0.104l0.053-0.893
				c0.158-2.048,0.315-4.096,0.473-6.092c0.21-2.363,0.473-4.778,0.735-7.141c0.053-0.315,0.053-0.683,0.105-0.998
				c0.42-3.728,0.945-7.404,1.47-11.079c0.42-2.73,0.84-5.461,1.365-8.191c0.945-5.146,1.943-10.239,3.151-15.333
				c1.523-6.669,3.308-13.285,5.251-19.849c0.683-2.258,1.365-4.463,2.1-6.722c0.945-2.941,1.943-5.881,2.993-8.822
				c1.365-3.885,2.836-7.719,4.411-11.552h64.43c0.788,1.995,1.575,4.043,2.363,6.039c0.367,0.998,0.734,1.943,1.103,2.941
				c0.315,0.892,0.63,1.733,0.945,2.625c0.998,2.783,1.943,5.618,2.888,8.454c0.788,2.363,1.523,4.673,2.206,7.036
				c0.63,2.153,1.26,4.253,1.838,6.406c0.21,0.735,0.42,1.418,0.578,2.153l0,0c0.998,3.728,1.942,7.509,2.836,11.29
				c1.155,5.093,2.205,10.186,3.151,15.333c1.155,6.406,2.1,12.812,2.836,19.27c0.053,0.316,0.104,0.683,0.104,0.998
				c0.263,2.363,0.525,4.726,0.735,7.141c0.21,2.048,0.367,4.043,0.473,6.092L230.937,300.803z"/>
			<path fill="#C3D2D8" d="M230.937,300.803c0,0.052,0,0.052,0,0.104c-3.728,0.788-7.614,1.523-11.605,2.1
				c-0.315-4.358-0.735-8.717-1.208-13.022c-0.053-0.368-0.104-0.735-0.104-1.103c-0.84-7.142-1.89-14.231-3.151-21.266
				c-0.998-5.671-2.153-11.343-3.466-16.961c-0.946-4.148-1.996-8.349-3.098-12.445l0,0c-0.21-0.788-0.421-1.575-0.631-2.363
				c-0.63-2.363-1.313-4.726-2.047-7.089c-0.788-2.625-1.575-5.198-2.416-7.771c-0.997-3.098-2.1-6.249-3.203-9.347
				c-0.367-0.945-0.682-1.942-1.05-2.888c-0.42-1.103-0.788-2.153-1.207-3.255l-0.525-1.313h11.657
				c0.788,1.995,1.575,4.043,2.363,6.039c0.367,0.997,0.735,1.942,1.103,2.941c0.315,0.893,0.631,1.733,0.946,2.625
				c0.998,2.783,1.942,5.619,2.888,8.454c0.788,2.363,1.523,4.673,2.205,7.036c0.631,2.153,1.26,4.253,1.838,6.406
				c0.21,0.735,0.421,1.418,0.578,2.153l0,0c0.998,3.729,1.943,7.509,2.836,11.29c1.156,5.093,2.206,10.187,3.151,15.333
				c1.156,6.406,2.1,12.812,2.836,19.271c0.053,0.315,0.104,0.683,0.104,0.998c0.525,4.41,0.893,8.822,1.208,13.232V300.803z"/>
			<path fill="#1C262E" d="M230.937,300.803c0,0.052,0,0.052,0,0.104c0,0.21-0.052,0.421-0.052,0.63
				c-0.053,0.42-0.106,0.841-0.158,1.208c-0.052,0.421-0.104,0.841-0.21,1.208c-0.053,0.158-0.053,0.367-0.104,0.525
				c-0.052,0.158-0.052,0.315-0.104,0.472c-0.054,0.158-0.054,0.368-0.106,0.525c-0.053,0.21-0.104,0.42-0.157,0.63
				c-2.731,0.42-5.514,0.788-8.349,1.155c-1.103,0.158-2.153,0.263-3.256,0.42c-8.454,0.998-17.223,1.68-26.307,2.048
				c-4.305,0.158-8.717,0.263-13.127,0.315c-0.788,0-1.575,0-2.363,0c-5.251,0-10.397-0.105-15.49-0.315
				c-13.39-0.525-26.15-1.785-37.964-3.571c-0.368-1.733-0.683-3.466-0.893-5.251c0-0.052,0-0.052,0-0.104l0.053-0.893
				c0.158-2.048,0.315-4.096,0.473-6.092c12.445,2.416,26.15,3.991,40.642,4.621c4.305,0.158,8.717,0.263,13.18,0.263
				c0.315,0,0.63,0,0.893,0l0,0c4.148,0,8.191-0.105,12.234-0.263c9.61-0.421,18.851-1.26,27.673-2.468
				c0.42-0.053,0.892-0.105,1.313-0.21l0,0c3.991-0.578,7.876-1.208,11.709-1.943c0.21,2.048,0.368,4.043,0.473,6.092
				L230.937,300.803L230.937,300.803z"/>
			<path fill="#98A8B3" d="M187.564,299.281c-0.21-0.683-0.578-1.26-0.946-1.785c-0.998-1.365-2.52-2.205-4.201-2.205h-11.604
				c-0.053,0-0.105,0-0.158,0c-0.053,0-0.104,0-0.158,0c-0.053,0-0.105,0-0.158,0c-0.052,0-0.105,0-0.105,0h-0.053
				c-0.053,0-0.105,0-0.105,0c-0.053,0-0.053,0-0.105,0c-0.053,0-0.105,0-0.158,0.053c-0.158,0.052-0.315,0.052-0.473,0.105
				c-0.053,0-0.104,0.052-0.104,0.052c-0.053,0-0.105,0.053-0.158,0.053c-0.104,0.053-0.21,0.053-0.263,0.104
				c-0.105,0.053-0.158,0.105-0.263,0.158l0,0c-0.104,0.052-0.158,0.104-0.263,0.158c-0.104,0.052-0.158,0.105-0.263,0.158l0,0
				c-0.053,0.052-0.158,0.105-0.21,0.158c0,0,0,0-0.053,0c-0.053,0.052-0.158,0.105-0.21,0.21c-0.053,0.052-0.105,0.105-0.158,0.158
				l0,0c-0.053,0.052-0.053,0.052-0.105,0.105c-0.158,0.158-0.263,0.263-0.42,0.42c-0.053,0.052-0.105,0.158-0.158,0.21l0,0
				c-0.158,0.21-0.315,0.42-0.42,0.63c-0.21,0.368-0.42,0.735-0.525,1.155c-0.263,0.735-0.42,1.575-0.42,2.416v5.093
				c0,1.155,0.263,2.205,0.735,3.151c0.945,1.943,2.783,3.256,4.883,3.256h11.605c0.104,0,0.21,0,0.263,0c0.053,0,0.157,0,0.21,0
				c0.053,0,0.104,0,0.209,0c0.054,0,0.054,0,0.106,0s0.157,0,0.21-0.052c0.053,0,0.104,0,0.157-0.053c0.053,0,0.106,0,0.106-0.052
				c0.053,0,0.105,0,0.105-0.052c0.053,0,0.053,0,0.104-0.053c0.054,0,0.106-0.053,0.21-0.053c0.053,0,0.158-0.053,0.21-0.053
				c0.053-0.052,0.158-0.052,0.21-0.104c0.053-0.053,0.157-0.053,0.21-0.105c0.053-0.053,0.157-0.053,0.209-0.105
				c0.054-0.053,0.158-0.105,0.21-0.105c0.053-0.052,0.158-0.105,0.21-0.158c0.052-0.053,0.104-0.053,0.158-0.105
				c0.63-0.472,1.207-1.103,1.628-1.838c0.053-0.052,0.053-0.105,0.104-0.158s0.053-0.105,0.106-0.158
				c0.157-0.316,0.263-0.578,0.367-0.945c0.053-0.105,0.053-0.158,0.053-0.263c0-0.105,0.053-0.158,0.053-0.263
				c0-0.105,0.054-0.158,0.054-0.263c0.107-0.472,0.16-0.945,0.16-1.47v-5.093C187.984,300.803,187.827,300.016,187.564,299.281z
				 M184.151,305.897c0,1.943-1.365,3.466-3.046,3.466h-9.032c-1.68,0-3.046-1.575-3.046-3.466v-3.413
				c0-0.472,0.053-0.892,0.21-1.313c0-0.053,0.053-0.158,0.105-0.21v-0.053c0.053-0.053,0.053-0.104,0.105-0.21c0,0,0,0,0-0.053
				c0.053-0.052,0.053-0.104,0.105-0.21c0.053-0.053,0.053-0.105,0.105-0.158c0.053-0.105,0.105-0.158,0.21-0.263
				c0.053-0.053,0.053-0.105,0.105-0.105c0,0,0-0.053,0.053-0.053c0.053-0.052,0.104-0.104,0.158-0.158l0,0
				c0.053-0.052,0.105-0.105,0.158-0.158c0.21-0.158,0.42-0.263,0.63-0.368l0,0c0.053,0,0.105-0.052,0.105-0.052
				c0.104-0.053,0.263-0.105,0.367-0.105c0.053,0,0.053,0,0.105,0c0.105,0,0.21-0.052,0.316-0.052c0.053,0,0.105,0,0.158,0h9.032
				c0.367,0,0.735,0.104,1.103,0.21c1.156,0.525,1.943,1.785,1.943,3.256v3.466L184.151,305.897L184.151,305.897z"/>
			<path fill="#161E23" d="M230.937,300.803c0,0.052,0,0.052,0,0.104c0,0.21-0.052,0.421-0.052,0.63
				c-0.053,0.42-0.106,0.841-0.158,1.208c-0.052,0.421-0.104,0.841-0.21,1.208c-0.053,0.158-0.053,0.367-0.104,0.525
				c-0.052,0.158-0.052,0.315-0.104,0.472c-0.054,0.158-0.054,0.368-0.106,0.525c-0.053,0.21-0.104,0.42-0.157,0.63
				c-2.731,0.42-5.514,0.788-8.349,1.155c-1.103,0.158-2.153,0.263-3.256,0.42c0.631-3.781,0.735-7.614,0.368-11.447l-0.052-0.525
				l0,0c3.991-0.578,7.876-1.208,11.709-1.943c0.21,2.048,0.368,4.043,0.473,6.091L230.937,300.803L230.937,300.803z"/>
			<path fill="#EB4C36" d="M183.678,224.402c0,4.043-1.05,8.034-3.098,11.552h-8.349c-2.047-3.518-3.098-7.509-3.098-11.552
				c0-0.63,0.053-1.26,0.105-1.891v-0.158l7.193-2.573l7.194,2.573v0.158C183.678,223.142,183.678,223.772,183.678,224.402z"/>
			<path fill="#C3D2D8" d="M176.59,219.781l7.981,16.225l0,0c9.452-4.936,17.591-11.972,23.892-20.584l2.836-3.938L176.59,219.781z"
				/>
			<path fill="#C3D2D8" d="M176.432,219.781l-7.981,16.225l0,0c-9.452-4.936-17.591-11.972-23.892-20.584l-2.836-3.938
				L176.432,219.781z"/>
			<path fill="#EB4C36" d="M185.044,277.069c0,4.358-1.575,8.611-4.463,11.92l-4.148,4.778l-4.148-4.778
				c-2.888-3.309-4.463-7.561-4.463-11.92c0-0.683,0.053-1.313,0.105-1.995l0.472-4.096l0.21-1.838l3.676-33.239l4.201-0.893
				l4.201,0.893l3.676,33.239l0.209,1.838l0.473,4.096C185.044,275.756,185.044,276.439,185.044,277.069z"/>
			<path fill="#29333D" d="M259.24,310.15c0,7.719-4.988,14.965-12.97,17.275l-50.987,14.703l-4.568,1.313l-1.103,0.316
				l-13.18,3.781l-19.533,12.812l5.251-16.908l14.283-9.924l54.61-38.017c9.085-6.301,21.687-2.993,26.465,7.036
				C258.663,304.952,259.24,307.577,259.24,310.15z"/>
			<path fill="#29333D" d="M195.966,360.297l-19.534-12.812l-14.283-4.096l-0.525-0.158l-3.623-1.05l-51.407-14.808
				c-7.981-2.31-12.97-9.557-12.97-17.276c0-2.572,0.578-5.198,1.733-7.718c4.778-9.977,17.328-13.337,26.465-7.036l54.61,38.017
				l14.125,9.819l0.21,0.105L195.966,360.297z"/>
			<g>
				<path fill="#292B2A" d="M138.888,69.551V40.566l-8.559-4.201c-9.872-4.831-21.739-2.783-29.458,5.093l0,0
					c-4.673,4.778-7.299,11.185-7.299,17.853l0,0c0,21.214,2.048,42.375,6.196,63.169l2.468,12.445L138.888,69.551z"/>
				<path fill="#0E0E0E" d="M213.556,69.551V40.566l8.559-4.201c9.924-4.831,21.791-2.783,29.511,5.093l0,0
					c4.673,4.778,7.299,11.185,7.299,17.853l0,0c0,21.214-2.048,42.375-6.197,63.169l-2.467,12.445L213.556,69.551z"/>
				<path fill="#FECC8B" d="M250.838,138.496c0,6.249-0.368,12.497-1.156,18.693c-0.315,2.52-0.734,5.041-1.259,7.509
					c-0.263,1.208-0.525,2.415-0.841,3.623c-0.997,3.729-2.205,7.351-3.622,10.869c-2.836,6.931-6.617,13.39-11.133,19.113
					c-8.296,10.502-19.008,18.221-30.875,22.317c-8.349,2.888-16.961,4.358-25.573,4.358c-8.612,0-17.276-1.418-25.572-4.358
					c-5.934-2.048-11.605-4.988-16.751-8.769c-5.198-3.781-9.924-8.296-14.073-13.547c-4.568-5.724-8.297-12.182-11.132-19.113
					c-2.836-6.931-4.778-14.335-5.776-21.949c-0.105-0.788-0.21-1.575-0.263-2.31c-1.785,0.788-3.781,1.26-5.881,1.26
					c-7.981,0-14.493-6.511-14.493-14.545s6.511-14.545,14.493-14.545c1.89,0,3.676,0.368,5.356,0.998
					c0.368-5.566,1.103-11.08,2.1-16.593l7.404-40.38l0.945-5.198l0.42-2.258h126.495l2.521,13.81l0.473,2.73l5.723,31.348
					C250.05,120.433,250.838,129.465,250.838,138.496z"/>
				<path fill="#E4B380" d="M270.529,141.594c0,8.034-6.511,14.545-14.493,14.545c-2.154,0-4.254-0.473-6.092-1.365
					c-0.104,0.788-0.157,1.628-0.263,2.415c-0.945,7.666-2.888,15.07-5.776,21.949c-2.834,6.931-6.616,13.39-11.131,19.113
					c-8.297,10.502-19.008,18.221-30.876,22.317c-8.348,2.888-16.96,4.359-25.572,4.359c-3.256,0-6.511-0.21-9.714-0.63
					c5.355-0.683,10.659-1.943,15.857-3.729c11.868-4.096,22.527-11.815,30.876-22.317c4.568-5.723,8.297-12.182,11.131-19.113
					c2.836-6.931,4.779-14.335,5.776-21.949c0.788-6.196,1.156-12.445,1.156-18.693c0-9.032-0.788-18.063-2.415-26.99l-8.769-47.889
					h19.429l8.77,47.889c0.997,5.514,1.68,11.08,2.1,16.646c1.732-0.735,3.57-1.103,5.566-1.103
					C264.07,127.102,270.529,133.561,270.529,141.594z"/>
				<ellipse opacity="0.5" fill="#F5846B" enable-background="new    " cx="213.924" cy="150.836" rx="13.6" ry="4.778"/>
				<ellipse opacity="0.5" fill="#F5846B" enable-background="new    " cx="138.888" cy="150.836" rx="13.6" ry="4.778"/>
				<path fill="#80644A" d="M253.989,148.788l-0.578-4.673c-0.421-3.676,0.734-7.299,3.203-10.029l0,0
					c1.26-1.418,3.518-1.313,4.726,0.158l2.1,2.678l-2.521-1.575c-1.05-0.683-2.467-0.578-3.413,0.315l0,0
					c-2.048,1.89-3.255,4.568-3.361,7.404L253.989,148.788z"/>
				<path fill="#80644A" d="M97.93,148.788l0.578-4.673c0.42-3.676-0.735-7.299-3.203-10.029l0,0
					c-1.26-1.418-3.518-1.313-4.726,0.158l-2.1,2.678l2.52-1.575c1.05-0.683,2.468-0.578,3.413,0.315l0,0
					c2.048,1.89,3.256,4.568,3.361,7.404L97.93,148.788z"/>
				<path fill="#E4B380" d="M242.647,80.158c-15.071,8.507-32.189,13.337-50.409,13.337c-30.561,0-59.756-6.931-79.71-27.568
					l0.42-2.258h126.706l2.521,13.81L242.647,80.158z"/>
				<path fill="#292B2A" d="M186.356,86.669c-0.473,0-0.945,0-1.47,0c6.721,0.735,13.442,1.05,20.216,1.05
					c5.041,0,10.081-0.21,15.122-0.578c-18.168,2.415-36.547,2.1-54.504-0.998c-5.356-0.893-10.712-2.1-15.963-3.466
					c0,0,0,0-0.053,0c-0.998-0.263-1.995-0.525-2.993-0.84l-4.358-1.26c12.077,8.034,25.625,13.757,40.012,16.803l5.776,1.208
					l-9.872-1.365c-22.264-3.151-43.163-12.707-60.07-27.568l-5.724-5.041l0,0c-4.096-3.466-7.929-7.351-11.342-11.815
					c-0.315-0.368,1.313-8.822,0.998-9.189c19.9-26.307,50.251-43.11,84.224-43.11c34.026,0,64.376,16.803,84.173,43.11
					c-14.913,19.796-35.812,34.236-59.756,40.117C202.949,85.672,194.758,86.669,186.356,86.669z"/>
				<path fill="#292B2A" d="M149.757,82.679c-2.468-0.63-4.936-1.313-7.351-2.048l4.358,1.26
					C147.762,82.154,148.76,82.416,149.757,82.679z"/>
				<path fill="#0E0E0E" d="M186.356,86.669c-0.473,0-0.945,0-1.47,0c6.721,0.735,13.442,1.05,20.216,1.05
					c5.041,0,10.081-0.21,15.122-0.578c-18.168,2.415-36.547,2.1-54.504-0.998l1.68-0.42c9.767-2.31,19.481-5.829,29.038-10.187
					c24.259-10.974,42.217-30.456,52.352-53.822c8.139,6.196,15.49,13.547,21.739,21.844
					c-14.913,19.796-35.812,34.236-59.756,40.117l0,0c-0.053,0-0.053,0-0.105,0.053c-0.21,0.053-0.421,0.105-0.631,0.158
					c-0.263,0.053-0.472,0.105-0.734,0.158c-0.158,0.053-0.368,0.105-0.525,0.105c-0.21,0.053-0.368,0.105-0.579,0.105
					c-0.157,0.053-0.367,0.053-0.525,0.105c-0.157,0.053-0.367,0.053-0.525,0.105c-0.053,0-0.157,0.053-0.209,0.053
					c-0.158,0.053-0.368,0.053-0.525,0.105c-0.421,0.105-0.893,0.158-1.313,0.263c-0.263,0.053-0.525,0.105-0.735,0.158
					s-0.473,0.105-0.683,0.105c-0.263,0.053-0.578,0.105-0.84,0.158c-0.21,0.053-0.421,0.053-0.63,0.105c-0.054,0-0.106,0-0.158,0
					c-0.263,0.053-0.473,0.053-0.735,0.105c-0.788,0.105-1.523,0.21-2.31,0.315c-0.263,0.053-0.525,0.053-0.788,0.105
					c-0.263,0.053-0.525,0.053-0.788,0.105c-0.209,0-0.42,0.053-0.63,0.053c-0.315,0.053-0.63,0.053-0.892,0.105
					c-0.158,0-0.316,0.053-0.473,0.053c-0.893,0.053-1.733,0.158-2.625,0.21c-0.158,0-0.315,0-0.473,0.053c-0.158,0-0.263,0-0.421,0
					c-0.84,0.053-1.68,0.105-2.572,0.105c-0.21,0-0.368,0-0.579,0C187.932,86.669,187.144,86.669,186.356,86.669z"/>
				<path fill="#0E0E0E" d="M198.959,85.934c0.788-0.105,1.523-0.21,2.31-0.315C200.481,85.724,199.746,85.829,198.959,85.934z"/>
				<path fill="#161E23" d="M248.686,114.657h-10.764c-1.996-1.628-4.463-2.52-7.036-2.52h-21.581
					c-3.781,0-7.509,0.525-11.081,1.523c-3.57,0.998-7.035,2.52-10.239,4.463c-1.68,1.05-3.518,1.838-5.46,2.363
					c-1.891,0.525-3.886,0.84-5.882,0.84c-1.995,0-3.991-0.263-5.881-0.84c-1.89-0.525-3.728-1.313-5.46-2.363
					c-3.204-1.943-6.669-3.466-10.239-4.463c-3.571-0.998-7.299-1.523-11.08-1.523H122.4c-2.573,0-5.041,0.893-7.036,2.52h-10.764
					c-2.048,0-3.676,1.68-3.676,3.676v3.571c0,1.365,0.735,2.573,1.89,3.256l3.098,1.733l1.05,9.609
					c0.578,5.566,2.836,10.764,6.354,15.07c2.258,2.678,5.041,4.831,8.139,6.249c3.098,1.418,6.511,2.205,9.977,2.205h12.445
					c6.511,0,12.707-2.783,17.066-7.614c1.733-1.89,3.204-3.938,4.516-6.144c1.313-2.205,2.415-4.463,3.308-6.879l4.568-12.497
					h6.669l4.568,12.497c0.893,2.415,1.996,4.673,3.309,6.879c1.313,2.205,2.836,4.253,4.516,6.144
					c4.359,4.831,10.554,7.614,17.066,7.614h12.445c3.518,0,6.931-0.788,10.029-2.205c3.098-1.47,5.881-3.571,8.086-6.249
					c3.57-4.253,5.776-9.504,6.354-15.07l1.05-9.609l3.098-1.733c1.155-0.683,1.89-1.89,1.89-3.256v-3.571
					C252.361,116.337,250.733,114.657,248.686,114.657z M160.942,145.165c-2.678,4.358-6.564,8.927-8.664,10.134
					c-2.1,1.208-9.136,2.205-15.7,2.205c-6.511,0-14.125-1.575-16.856-3.518c-2.731-1.943-5.829-5.408-6.879-7.771
					s-1.89-7.824-1.89-12.182c0-4.358,2.363-10.029,5.303-12.602c2.888-2.573,11.552-4.673,19.219-4.673s17.643,1.785,22.159,3.991
					c4.516,2.153,8.192,6.774,8.192,10.292C165.773,134.401,163.62,140.807,160.942,145.165z M240.441,146.163
					c-1.05,2.31-4.148,5.829-6.879,7.771c-2.73,1.943-10.344,3.518-16.856,3.518c-6.564,0-13.6-0.998-15.7-2.205
					c-2.1-1.208-5.986-5.776-8.664-10.134c-2.678-4.358-4.83-10.764-4.83-14.23c0-3.466,3.676-8.086,8.191-10.292
					c4.516-2.153,14.493-3.991,22.159-3.991s16.33,2.1,19.218,4.673c2.888,2.573,5.305,8.244,5.305,12.602
					C242.331,138.339,241.491,143.852,240.441,146.163z"/>
				<circle fill="#AAC7D3" cx="106.332" cy="120.381" r="2.31"/>
				<circle fill="#AAC7D3" cx="246.532" cy="120.381" r="2.31"/>
				<path fill="#80644A" d="M190.295,154.669L190.295,154.669c-0.105,0.158-0.21,0.263-0.315,0.42
					c-0.525,0.63-1.103,1.208-1.68,1.733c-0.21,0.158-0.368,0.315-0.579,0.473c-0.104,0.105-0.209,0.158-0.315,0.263
					c-0.84,0.683-1.732,1.313-2.678,1.838c-4.358,2.52-9.662,2.52-14.02,0c-0.998-0.578-1.891-1.208-2.783-1.943
					c-0.263-0.21-0.525-0.473-0.841-0.683c-0.105-0.105-0.21-0.158-0.315-0.263c-0.473-0.473-0.945-0.945-1.418-1.47
					c-0.105-0.105-0.21-0.21-0.315-0.368v-0.053l0.525,0.315l0.367,0.21c0.946,0.578,1.943,1.05,2.993,1.47
					c1.628,0.683,3.361,1.155,5.146,1.418c1.208,0.21,2.416,0.263,3.623,0.263c2.048,0,4.096-0.263,6.091-0.788h0.054
					c0.157-0.053,0.263-0.053,0.42-0.105c1.838-0.525,3.571-1.26,5.198-2.205l0.315-0.158L190.295,154.669z"/>
				<path fill="#80644A" d="M223.848,128.362c-0.788,0-1.523,0.578-1.628,1.365c-0.631,3.676-3.886,6.459-7.719,6.459
					c-3.885,0-7.089-2.783-7.718-6.459c-0.158-0.788-0.84-1.365-1.628-1.365l0,0c-1.05,0-1.838,0.945-1.628,1.995
					c0.945,5.251,5.514,9.189,11.027,9.189c5.514,0,10.081-3.991,11.027-9.189C225.633,129.307,224.898,128.362,223.848,128.362
					L223.848,128.362z"/>
				<path fill="#80644A" d="M149.022,128.362c-0.788,0-1.523,0.578-1.628,1.365c-0.63,3.676-3.886,6.459-7.719,6.459
					c-3.886,0-7.089-2.783-7.719-6.459c-0.158-0.788-0.84-1.365-1.628-1.365l0,0c-1.05,0-1.838,0.945-1.628,1.995
					c0.945,5.251,5.514,9.189,11.027,9.189c5.513,0,10.082-3.991,11.027-9.189C150.807,129.307,150.072,128.362,149.022,128.362
					L149.022,128.362z"/>
				<path fill="#80644A" d="M202.319,179.979l-1.417,0.735c-7.036,3.728-14.913,5.671-22.842,5.671
					c-7.981,0-15.806-1.943-22.842-5.671l-1.418-0.735l2.153,0.63c7.194,2.1,14.598,3.203,22.107,3.203
					c7.456,0,14.912-1.05,22.107-3.203L202.319,179.979z"/>
				<path fill="#80644A" d="M179.898,196.782c-0.788,1.47-2.888,1.47-3.676,0H179.898z"/>
			</g>
		</g>
	</g>
	<path opacity="0.25" fill="#2A3C4E" enable-background="new    " d="M64.639,21.925l15.91,20.899l-2.678,1.785
		c-18.063,12.025-41.378,12.602-60.018,1.523l0,0L4.568,16.569l5.303,3.886C26.097,32.165,47.836,32.742,64.639,21.925
		L64.639,21.925z"/>
</g>
</svg>
